<svg xmlns="http://www.w3.org/2000/svg" viewBox="0 0 230 78">
  <defs/>
  <path fill="#ED4523" d="M141.297 29.36c5.953 0 10.775-4.826 10.775-10.771 0-5.952-4.822-10.777-10.775-10.777-5.945 0-10.772 4.825-10.772 10.777-.001 5.945 4.826 10.771 10.772 10.771zM140.7457204 1.0244012l1.097-.0013164.0064332 5.361-1.097.0013164zM146.9726476 7.7504508l2.617654-4.717388.9592168.5322644-2.617654 4.717388zM151.4019052 11.9910141l4.566184-2.807568.5751324.9353862-4.566184 2.807568zM132.2129176 3.5270984l.957681-.5351166 2.607291 4.666185-.957681.5351166zM126.2220279 10.0723214l.5618466-.9434016 4.5726624 2.7232674-.5618466.9434016z"/>
  <path fill="#fff" fill-rule="evenodd" d="M96.613 21.229c-8.733 5.636-12.003 7.246-12.003 7.246v5.533c11.186-5.301 18.045 1.46 18.045 1.46v1.895h5.238V21.289c0-2.049-1.7-2.79-1.7-2.79h9.388s-2.848.818-4.073 1.642c-1.434.962-1.133 2.528-1.133 2.528l6.402 2.66s.782.23.811.795c.047.67-.815.879-.815.879s-3.688.286-5.531 1.796c-1.327 1.093-1.019 2.038-1.019 2.038v2.749c.002.234.002.424.122.543 1.462 1.514 4.254 1.977 4.254 1.977l2.26-1.234c-2.385-.182-2.489-.729-2.524-1.192-.019-.371.369-1.566 5.363-1.822 4.472-.228 8.869 2.98 8.869 2.98v2.508h5.23V21.399c0-.922-.254-4.624-4.939-4.624l-4.562-.032H99.318v.731c3.401.344 3.335 2.65 3.335 2.65v11.239c-3.701-3.227-8.552-3.42-8.552-3.42 2.615-1.431 4.516-3.078 5.551-3.944.345-.294.825-1.047.293-2.185-.822-1.758-1.78-3.106-3.293-4.456-2.229-1.988-5.095-.695-5.095-.695l-2.782 1.255c-7.137-4.002-11.376-.285-11.376-.285v.821c-11.042-7.354-18.493 1.98-18.493 1.98v2.39l7.504-.02-3.084 2.943v4.136l13.876-5.164v7.078s-2.949-2.016-6.775-1.169c-2.355.521-5.948 1.908-6.964 1.954-4.622.206-4.928-3.055-4.982-4.717-.039-1.184 1.314-1.007 1.314-1.007v-2.037H53.77s-.308 1.902-.104 3.587c.515 4.994 3.376 6.96 5.849 7.502 4.772 1.044 8.046-1.93 11.22-2.209 3.833-.345 6.439 2.326 6.439 2.326v1.178h5.236V19.73c.297-.887 1.074-1.246 1.36-1.294 2.265-.412 3.201.187 3.201.187s-.674.347-1.633 1.06c-.928.671-.583 2.072-.516 3.197.071 1.129 2.049 1.923 2.049 1.923l1.68-.823c-1.535-.508-.614-1.469-.614-1.469s5.933-2.766 6.958-3.21c0 0 .173-.086.549-.214.375-.128.813-.072 1.052.43.236.502.6 1.4.117 1.712zM69.661 23.65s-.395.248-.607.015c-.101-.1-.037-.288.194-.51l1.201-1.103s1.053-.984-.415-1.056c-1.476-.067-3.697-.062-3.697-.062s-.694.086-.744-.23c-.029-.149-.026-.333.229-.492.585-.381 9.387-2.394 11.819.578l-7.98 2.86zm55.985 2.569s.408-1.485-2.498-2.747c-.383-.168-2.958-1.349-5.473-2.38-.412-.162-.622-.922.132-1.195.755-.272 4.77-1.398 4.77-1.398h3.503s2.479.011 2.479 2.436l.011 9.701s-1.923-1.962-5.971-3.155l3.047-1.262zM224.668 16.678H147.02v1.983l5.483-.002c-5.901 1.801-5.292 4.745-5.292 4.745v5.163c.143 2.581 3.103 2.291 3.103 2.291s3.027-.484 4.768-1.195c2.116-.665 3.105-1.352 3.105-1.352 2.242-1.037 1.433-2.85 1.372-3.017-.488-1.201-2.364-2.756-2.364-2.756l-2.131.665.467.461c.789.577-.67 1.367-.67 1.367l-3.404 1.077c-1.76.416-1.164-.848-1.075-1.021.479-1.081 2.6-2.102 3.339-2.488 5.405-2.86 6.734-.5 7.354.166 4.07 4.348.171 7.735-.679 8.494-2.548 2.286-6.194 4.39-10.977 4.445-5.304.062-6.536-2.496-6.536-2.496l.494-1.18-1.906-.982-4.369 5.202c16.198 11.053 27.709-3.333 27.709-3.333 2.552.866 3.983 2.611 3.983 2.611v1.682h5.093V21.387c-.037-2.342-1.586-2.728-1.586-2.728h3.452c1.829.673 1.616 2.756 1.616 2.756V37.21h5.291V21.184c-.022-2.281-1.686-2.525-1.686-2.525H192.484c-.973.646-1.986 1.421-4.508 3.324-2.515 2.118-2.114 4.554-2.114 4.554v5.016c-.067.911.85 2.097 1.292 2.444 3.372 2.652 6.158 3.692 7.515 4.09 3.94 1.156 5.96-1.174 5.96-1.174l1.821-1.958-1.872-1.011c-1.335 2.114-4.685-.163-4.685-.163s-2.102-1.244-3.002-1.784c-2.599-1.662-2.55-2.397-2.55-2.397l.024-5.728c.243-1.726 6.17-5.211 6.17-5.211h17.136c2.008.66 1.791 2.875 1.791 2.875v3.427c-2.524-1.949-4.456-.787-4.456-.787l-3.166 1.579s.799-1.136 1.763-2.495c.904-1.284-.351-1.691-3.07-2.944-3.505-1.617-5.683.075-5.683.075s-2.175 1.163-4.436 2.819c-2.26 1.66-2.061 3.271-2.061 3.271v2.493c1.254 2.12 4.201 1.473 4.201 1.473l.722-1.427c-1.85-.111-1.5-.939-1.24-1.254 0 0 7.082-4.32 8.379-4.994.192-.101.627.058.456.434-.672 1.456-3.595 4.907-3.794 5.406-1.225 3.15.9 3.99.9 3.99l8.718-4.307c2.261-1.083 2.766.56 2.766.56v8.578h5.082V21.534c.024-2.249-1.777-2.875-1.777-2.875h3.421c2.005.834 1.814 2.887 1.814 2.887v15.886H229V21.531c0-1.957-.976-4.853-4.332-4.853zm-55.875 14.25s-.912-1.369-2.431-2.156c0 0 .734-7.21-7.049-10.112h7.92s1.534.386 1.559 2.744v9.524z" clip-rule="evenodd"/>
  <path fill="#fff" d="M38.504 69.799l-17.55 1.122V49.125l9.857.239 1.362 6.972h5.529V36.222h-5.529l-1.442 6.571-9.777.241V22.199L36.741 23l2.804 8.094h6.331l-1.042-14.183H1v5.609l6.251 1.122v46.717l-6.171.803v5.288h47.2l1.924-15.064-6.812-1.925z"/>
  <g>
    <path fill="#fff" d="M56.592 47.374L53.15 46.8v-3.089h11.077L76.406 62.51l2.471 5.296V47.374l-3.75-.574v-3.089h11.297V46.8l-3.354.574v29.124h-6.487l-12.93-20.167-2.912-5.824V73.1l4.677.485v2.913H53.15v-2.913l3.442-.485V47.374zM95.601 74.822c-2.354-1.442-4.133-3.413-5.34-5.914-1.206-2.5-1.809-5.339-1.809-8.516 0-3.648.691-6.752 2.074-9.311 1.383-2.56 3.361-4.494 5.936-5.803 2.574-1.309 5.626-1.963 9.156-1.963 2.03 0 4.045.148 6.046.441 2 .294 3.692.602 5.075.927l-.529 8.516h-5.296l-1.235-5.824c-.265-.294-.744-.553-1.434-.772-.691-.221-1.626-.331-2.802-.331-2.618 0-4.649 1.155-6.09 3.464-1.442 2.311-2.162 5.657-2.162 10.039 0 4.355.61 7.804 1.831 10.348 1.22 2.545 3.125 3.818 5.714 3.818 1.059 0 2.022-.139 2.891-.42.867-.279 1.522-.64 1.963-1.081v-9.223l-4.104-.441v-3.221h13.768v3.221l-2.206.353v11.606c-.501.03-1.662.264-3.486.705-1.795.471-3.413.846-4.854 1.125-1.442.28-2.987.42-4.633.42-3.296-.001-6.121-.721-8.474-2.163zM125.035 47.419l-3.31-.618v-3.089h15.047V46.8l-4.192.618v25.638l8.296-.441 2.869-8.737 4.148.53-1.279 12.091h-24.976v-2.913l3.398-.441V47.419zM153.761 47.419l-3.618-.618v-3.089h14.871V46.8l-3.707.618v25.726l3.707.485v2.869h-14.827v-2.913l3.574-.485V47.419zM175.582 76.587c-1.368-.266-2.802-.618-4.302-1.059-.971-.294-1.676-.456-2.118-.485l.397-8.252h4.104l1.104 5.649c.323.382.919.722 1.786 1.015.868.294 1.904.441 3.111.441 1.794 0 3.139-.398 4.038-1.192.897-.794 1.345-1.882 1.345-3.266 0-.971-.287-1.816-.86-2.537-.574-.72-1.368-1.383-2.383-1.986-1.015-.602-2.405-1.301-4.171-2.096-2.324-1.058-4.287-2.405-5.89-4.037-1.604-1.633-2.406-3.787-2.406-6.465 0-1.647.426-3.148 1.279-4.501.853-1.353 2.147-2.442 3.884-3.266 1.735-.823 3.899-1.235 6.487-1.235 1.56 0 2.92.103 4.082.308 1.161.207 2.405.485 3.728.838.707.236 1.25.369 1.633.397l-.266 7.855h-4.015l-1.015-5.427c-.207-.264-.669-.507-1.389-.728-.722-.22-1.523-.331-2.406-.331-1.617 0-2.831.384-3.64 1.148-.81.764-1.214 1.75-1.214 2.956 0 1.059.338 1.986 1.015 2.78.676.795 1.493 1.464 2.449 2.009.955.544 2.419 1.301 4.391 2.272 1.558.766 2.92 1.538 4.082 2.317 1.161.779 2.154 1.786 2.979 3.023.823 1.235 1.235 2.677 1.235 4.324 0 1.619-.39 3.178-1.169 4.678-.779 1.501-2.111 2.752-3.994 3.751-1.883 1-4.355 1.501-7.414 1.501-1.617-.002-3.109-.135-4.477-.399zM198.595 47.374l-3.177-.574v-3.089h14.297V46.8l-3.618.574V57.92h12.091V47.419l-3.31-.618v-3.089H229V46.8l-3.266.574v25.77l3.266.442v2.913h-14.122v-2.913l3.31-.485V61.672h-12.091v11.473l3.618.441v2.913h-14.386v-2.913l3.266-.441V47.374z"/>
  </g>
</svg>
