<svg xmlns="http://www.w3.org/2000/svg" viewBox="0 0 156 40">
  <defs/>
  <g fill-rule="evenodd" clip-rule="evenodd">
    <path fill="#fff" d="M98.68 36.37v.5l3.55 2.3v-2.01c0-6.57.01-13.13.01-19.7h.03c0-.15-.01-.3-.01-.45 0-7.03 5.7-12.72 12.72-12.72h39.95V.74h-39.58c-.12 0-.24-.01-.37-.01-8.96 0-16.24 7.25-16.28 16.2h-.02v19.44zm52.77 0v.5l3.55 2.3V17.98h-.01v-.53c0-.64.03-1.25-.04-1.89-.48-4.38-4.33-7.57-8.71-7.81v-.02h-31.6v.01a9.297 9.297 0 00-8.81 9.17v5.8l.01 6.84c0 .64-.03 1.25.04 1.89.5 4.56 4.66 7.83 9.27 7.83 5.03 0 9.13-3.97 9.32-8.94h.01v-3.04h.01v-3.58c-3.32 0-6.43-1.08-8.96-2.96-2.32-1.72-4.14-4.1-5.17-6.93a5.75 5.75 0 014.53-2.54h21.08c1.24.06 2.38.51 3.3 1.23l.06.04c.57.46 1.06 1.04 1.42 1.69a8.16 8.16 0 00-6.05-.73 8.153 8.153 0 00-4.98 3.82v.01a8.196 8.196 0 00-.82 6.22 8.153 8.153 0 003.82 4.98c.63.36 1.3.64 1.98.82.61.17 1.24.26 1.87.28v-3.59a5.08 5.08 0 01-.95-.15c-.39-.1-.77-.26-1.11-.46a4.606 4.606 0 01-2.16-2.81c-.31-1.15-.18-2.41.46-3.51.64-1.1 1.66-1.85 2.81-2.16 1.15-.31 2.41-.18 3.51.46.71.41 1.29 1 1.69 1.7.17.29.31.61.41.94.19.64.23 1.51.23 2.19v.55c-.09 0-.18-.01-.27-.01v.02h-2.98v6.81h3.47V26.4c.24.02.48.07.71.13a4.643 4.643 0 013.27 3.27c.3 1.14.18 2.4-.45 3.5v.01a4.634 4.634 0 01-2.81 2.16c-1.11.3-2.33.19-3.41-.4l-.11-.06a4.626 4.626 0 01-2.29-3.68H133c.05 1.34.44 2.63 1.1 3.77a8.247 8.247 0 002.9 2.94l.11.06a8.19 8.19 0 006.22.82 8.17 8.17 0 004.92-3.72l.05-.1c1.14-1.96 1.37-4.2.82-6.22a8.153 8.153 0 00-3.82-4.98c-.09-.06-.19-.11-.29-.16 0-2.1 0-4.19-.01-6.3 0-.64.03-1.25-.04-1.89a8.351 8.351 0 00-1.76-4.27h2.78c1.24.06 2.38.51 3.3 1.23l.06.04a5.718 5.718 0 012.13 4.35c-.02 0-.02 18.54-.02 19.47zm-30.54-6.04v-3.38a18.68 18.68 0 01-7.5-3.32c-1.53-1.13-2.89-2.5-4.01-4.06v10.52c.04 1.76.86 3.32 2.14 4.35l.06.04c.98.77 2.22 1.23 3.57 1.23 3.05 0 5.55-2.38 5.74-5.38z"/>
    <path fill="#fff" d="M85.89 18.31c2.15 0 4.12.73 5.69 1.96V16.9a5.744 5.744 0 00-2.14-4.35l-.06-.04a5.752 5.752 0 00-3.51-1.23v.01H73.34v21.79h.02v6.1l-3.55-2.3v-25.6H43.28c-.02 1.81.51 3.54 1.47 4.99l.07.1c1.2 1.76 3.03 3.1 5.24 3.64.1.02.21.05.32.07.69.14 1.4.2 2.1.17.32-.01.65-.04.97-.09.44-.91 1.03-1.76 1.79-2.51a9.24 9.24 0 0113.07 0l.03.03-1.74 1.75-4.76 4.76 4.04 4.04 2.46 2.46-.03.03c-3.53 3.53-9.2 3.61-12.82.24a12.76 12.76 0 01-2.9 4.51c-2.29 2.29-5.44 3.7-8.93 3.7-3.49 0-6.64-1.41-8.93-3.7s-3.7-5.44-3.7-8.93h.02l.04-18.81h3.57l-.05 18.81h.01v.06a9.036 9.036 0 002.65 6.34 9.01 9.01 0 006.39 2.65c2.5 0 4.76-1.01 6.4-2.65a8.997 8.997 0 002.29-3.87c-1.42.88-3.1 1.39-4.9 1.39-3.14 0-6.07-1.53-7.77-3.96a8.261 8.261 0 01-1.47-3.87c-.07-.64-.04-1.24-.04-1.89l-.01-6.84V7.73H85.9c4.58.02 8.7 3.29 9.2 7.83.07.64.04 1.24.04 1.89l.01 6.84v14.89l-3.55-2.3V26.66a5.761 5.761 0 00-11.45.91c0 3.18 2.58 5.76 5.76 5.76h.04v3.48h-.04c-5.1 0-9.24-4.14-9.24-9.24a9.219 9.219 0 019.22-9.26zM12.43 30.33v-3.38a18.68 18.68 0 0011.51-7.38v10.52a5.76 5.76 0 01-2.14 4.35l-.06.04c-.98.77-2.22 1.23-3.57 1.23-3.05 0-5.56-2.38-5.74-5.38zm-3.58-3.04v3.04h.01c.19 4.97 4.29 8.94 9.32 8.94 4.61 0 8.77-3.28 9.27-7.83.07-.64.04-1.24.04-1.89l.01-6.84V7.68h-9.47c-5.05.07-9.14 4.16-9.18 9.22h3.55c.04-3.1 2.53-5.61 5.62-5.67h5.68c-.36 1.77-.81 3.14-1.78 4.85a15.042 15.042 0 01-4.13 4.66 15.046 15.046 0 01-8.96 2.96v3.58h.02v.01zm50.51-5.56l3.25-3.25c-1.74-.26-3.58.28-4.93 1.62a5.764 5.764 0 000 8.15 5.744 5.744 0 004.92 1.62l-5.69-5.69 2.45-2.45zm-17.67-2.97v2.51c.04 1.76.86 3.32 2.14 4.35l.06.04c.41.33.87.59 1.36.8.68.28 1.42.43 2.19.43.8 0 1.56-.16 2.25-.46a5.77 5.77 0 002.63-2.25c-.91.01-1.82-.08-2.72-.26a12.7 12.7 0 01-7.91-5.16zM1 36.87l3.55 2.3c0-6.6.01-13.2.01-19.8 0-1.13-.03-2.61.1-3.74.68-6.37 6.08-11.34 12.64-11.34 25.22 0 52.63.01 77.85.01V.75C69.93.75 42.52.73 17.3.73 9.01.73 2.16 6.93 1.15 14.95.98 16.27 1 17.52 1 18.83v18.04z"/>
  </g>
</svg>