<svg
    xmlns="http://www.w3.org/2000/svg" width="226" height="61" viewBox="0 0 225 61">
    <g id="Artboard_1" data-name="Artboard – 1">
        <rect width="225" height="61" fill="#222"></rect>
        <g id="Group_5162" data-name="Group 5162" transform="translate(-97.677 -903.075)">
            <g id="Group_4723" data-name="Group 4723" transform="translate(176.665 907.035)">
                <path id="Path_548" data-name="Path 548" d="M232.43,927.534c-.62-.832-1.315-1.6-2.01-2.372-.516-.571-1.083-1.454-1.921-1.549a2.008,2.008,0,0,0-1.934,1.62c-1.062-.054-2.125-.054-3.187-.093-.531-.02-1.062-.047-1.592-.1-.707-.066-.906.057-.966-.6-.1-1.09-.033-2.186-.051-3.279a13.433,13.433,0,0,0-3.653-8.707c-.1-.1-.193-.207-.29-.308a13.462,13.462,0,0,0-8.179-4.053,16.533,16.533,0,0,0-5.264.378,26.513,26.513,0,0,0-3.757,1.066,15.805,15.805,0,0,0-1.806.81c-.574.3-1.058.66-1.011,1.367a17.548,17.548,0,0,0,.513,2.66c.206.926.334,1.87.585,2.786.165.6.676.273.982-.02.527-.5,1-1.055,1.553-1.534a15.371,15.371,0,0,1,3.942-2.511,12.682,12.682,0,0,1,1.622-.576,9.944,9.944,0,0,1,7.751.874,7.384,7.384,0,0,1,3.613,6.7c.022-.252-1.689-.952-1.922-1.05a11.024,11.024,0,0,0-2.209-.662,11.479,11.479,0,0,0-8.818,2.136,10.674,10.674,0,0,0-1.372,1.2,7.6,7.6,0,0,0-2.078,3.7c-.187,1.341.916,2.451,1.714,3.388.722.849,1.7,1.912,2.918,1.852.939-.045,1.2-.972,1.251-1.761a10.95,10.95,0,0,1,.439-3.615,5.824,5.824,0,0,1,6.9-3.4,3.6,3.6,0,0,1,1.566.818,2.063,2.063,0,0,1,.674,1.593,3.03,3.03,0,0,1-.96,1.75c-1.272,1.362-2.787,2.471-4.158,3.728q-1.822,1.67-3.536,3.451c-1.941,2.016-4.33,4.09-4.808,6.978-.818,4.958,5.42,5.568,8.8,5.983,1.066.131,2.3.018,3.23.655,1.666,1.142.9,4.276,2.9,4.921,1.818.586,2.009-2.107,1.7-3.194-.193-.69-.52-1.346-.681-2.044a11.548,11.548,0,0,1-.136-3.434,88.446,88.446,0,0,1,1.239-10.638,4.058,4.058,0,0,1,1.115-2.418,3.408,3.408,0,0,1,2.785-.486,17.709,17.709,0,0,0,2.869.518c.377,0,.192,5.891.161,6.439-.126,2.2-.368,4.4-.51,6.6-.07,1.1-.117,2.2-.111,3.3a11.574,11.574,0,0,0,.194,3.206,1.85,1.85,0,0,0,2.021,1.342c1.854-.338,1.814-4.16,1.929-5.521.223-2.647.147-5.31.354-7.958.092-1.18.194-2.359.323-3.535.171-1.554.191-2.935,1.279-4.19A1.488,1.488,0,0,0,232.43,927.534Zm-17.236,15.95a14.78,14.78,0,0,0-3.348-1.138,22.422,22.422,0,0,0-3.766-.469c-.546-.019-1.814-.01-1.781-.827a1.309,1.309,0,0,1,.372-.752,24.736,24.736,0,0,1,1.878-1.865c1.052-1.019,2.16-1.981,3.283-2.92q2.065-1.726,4.212-3.351C216.45,932.444,215.194,943.484,215.194,943.484Z" transform="translate(-196.804 -908.025)" fill="#fff"></path>
            </g>
            <g id="Group_4724" data-name="Group 4724" transform="translate(177.359 951.306)">
                <path id="Path_549" data-name="Path 549" d="M197.742,971.761Z" transform="translate(-197.685 -965.042)" fill="#fff"></path>
                <path id="Path_550" data-name="Path 550" d="M197.745,971.759Z" transform="translate(-197.688 -965.04)" fill="#fff"></path>
                <path id="Path_552" data-name="Path 552" d="M197.674,972.058l.022.028c0-.009-.007-.019-.01-.028Z" transform="translate(-197.674 -965.101)" fill="#fff"></path>
                <path id="Path_553" data-name="Path 553" d="M233.415,972.869a1.5,1.5,0,0,0-.235-.309c-.474-.486-.984-.934-1.494-1.383a33.015,33.015,0,0,0-4.085-3.058q-1.186-.751-2.432-1.4-1-.523-2.042-.974a29.593,29.593,0,0,0-3.735-1.329l-.033-.008c-.635-.178-1.278-.326-1.924-.458a27.224,27.224,0,0,0-4.443-.567,21.866,21.866,0,0,0-3.822.169,18.847,18.847,0,0,0-3.224.722,17.372,17.372,0,0,0-2.652,1.094,16.665,16.665,0,0,0-2.1,1.284,15.41,15.41,0,0,0-2.232,1.951,12.487,12.487,0,0,0-.966,1.13.905.905,0,0,0,.058,1.243,6.245,6.245,0,0,0,.9.885,15.158,15.158,0,0,0,1.858,1.276,20.207,20.207,0,0,0,4.223,2.014,16.475,16.475,0,0,0,3.786.8c.182.016.363.03.545.039a18.982,18.982,0,0,0,4.445-.291c.345-.062.694-.131,1.049-.214l.069-.015a28.1,28.1,0,0,0,8.565-3.719l-.052.012a21.61,21.61,0,0,0,2.142-1.456.333.333,0,0,1,.5-.025c1.331.9,2.679,1.775,4.03,2.646q1.013.654,2.024,1.309a.862.862,0,0,0,1.339-.482A1.016,1.016,0,0,0,233.415,972.869ZM221.454,968.1s-5.79,6.425-17.5,3.6C203.953,971.7,209.02,963.977,221.454,968.1Z" transform="translate(-197.694 -963.362)" fill="#fff"></path>
            </g>
            <g id="Group_4725" data-name="Group 4725" transform="translate(204.404 905.771)">
                <path id="Path_554" data-name="Path 554" d="M277.559,917.436c-.71-3.988-2.521-7.619-6.523-9.553a15.13,15.13,0,0,0-17.012,2.771s-12.087-9.283-22.379,4.782l5.518,4.285c-.145-.112.994-1.938,1.076-2.066a11.913,11.913,0,0,1,3.638-3.684,10.518,10.518,0,0,1,6.788-1.451c3.55.394,6.909,2.254,7.852,5.914a8.9,8.9,0,0,1-.726,5.533,6.233,6.233,0,0,1-2.92,3.516,4.326,4.326,0,0,1-2.638.178,9.827,9.827,0,0,1-4.324-2.412,13.993,13.993,0,0,1-1.67-1.806c-.95-1.23-2.511-2.544-4.083-1.462a11.588,11.588,0,0,1,1.152,1.686,18.464,18.464,0,0,1,1.831,5.358,41.652,41.652,0,0,0,1.581,5.607,21.564,21.564,0,0,0,4.7,7.838,5.018,5.018,0,0,0,1.924,1.228c1.714.567,3.2-.383,4.227-1.688,1.3-1.657,2.347-3.458,3.531-5.188,1.275-1.862,2.648-3.749,4.043-5.556.87-1.129,1.81-2.532,3.262-2.939,2.109-.591,3.631,1.645,4.211,3.346a23.109,23.109,0,0,1,.892,8.46c-.061,1.446-.175,2.89-.258,4.335-.067,1.16-.254,2.571.375,3.625.582.975,1.832.631,2.5-.075,1.037-1.1,1.119-2.706,1.34-4.117,1.093-6.977,2.408-14.072,2.486-21.153A28.811,28.811,0,0,0,277.559,917.436Zm-3.966,11.952a20.727,20.727,0,0,0-2.763-3.25,7.922,7.922,0,0,0-3.735-1.994c-3.228-.62-5.266,1.874-7.18,4.042-1.514,1.716-2.947,3.482-4.289,5.337-.812,1.122-1.6,2.25-2.416,3.366a5.11,5.11,0,0,1-1.565,1.515,2.229,2.229,0,0,1-2.1.106,3.277,3.277,0,0,1-1.24-1.629,35.837,35.837,0,0,1-2.016-5.631c-.071-.268-.12-.6.094-.78.455-.374,1.51.59,1.906.789a7.524,7.524,0,0,0,6,.43,10.158,10.158,0,0,0,4.971-5.014,11.546,11.546,0,0,0,.816-8.28c-.094-.329-1.652-3.755-1.814-3.6a14.939,14.939,0,0,1,6.683-3.927,7.482,7.482,0,0,1,7.207,1.977,7.85,7.85,0,0,1,1.727,4.065,23.358,23.358,0,0,1,.083,4.47Q273.782,925.387,273.592,929.389Z" transform="translate(-231.645 -906.445)" fill="#fff"></path>
            </g>
            <g id="Group_4726" data-name="Group 4726" transform="translate(250.687 906.719)">
                <path id="Path_555" data-name="Path 555" d="M361.612,915.39a13.569,13.569,0,0,0-1.175-2.194,12.768,12.768,0,0,0-3.4-3.582c-.521-.358-1.242-.951-1.893-.867a1.184,1.184,0,0,0-1.059,1.129c-.036.628.713,1.053.662,1.583a.329.329,0,0,1-.369.324l-27.368-1.053a2.755,2.755,0,0,1-.667-.253,43.988,43.988,0,0,0-17.095-2.814,40.688,40.688,0,0,0-12.188,2.384,36.826,36.826,0,0,0-3.731,1.592c-1.185.584-4.092,1.653-3.327,3.443a3.117,3.117,0,0,0,.168.34,3.333,3.333,0,0,0,2.673,1.706c1.647.08,3.135-.875,4.584-1.522a47.9,47.9,0,0,1,4.776-1.837c5.938-1.922,12.464-2.877,18.58-1.219a17.332,17.332,0,0,1,6.865,3.542c3.421,2.977,3.534,7.888,3.19,12.067-.419,5.094-1.094,10.194-1.7,15.268-.252,2.119-.972,4.672.022,6.691.254.516.784,1.37,1.439,1.4,1.045.051,1.346-1.64,1.486-2.378.833-4.378.89-8.85,1.621-13.242.722-4.339,1.7-8.815.878-13.212a19.442,19.442,0,0,0-2.826-7.2l15.176.458c4.968.15,9.958,0,14.929.053Z" transform="translate(-289.878 -907.63)" fill="#fff"></path>
            </g>
            <path id="Path_556" data-name="Path 556" d="M311.589,922.859a3.058,3.058,0,0,1,.319.739,3.7,3.7,0,0,0,.668,1.55,2.03,2.03,0,0,0,2.67-.064,5.351,5.351,0,0,0,1.736-4.054,14.878,14.878,0,0,0-.368-1.8c-.746-3.87-5.98-3.87-8.115-2.046a18,18,0,0,0-4.7,5.933,10.174,10.174,0,0,0-.721,7.419,11.561,11.561,0,0,0,1.991,3.694s7.253,11.056,18.943-3.31a2.035,2.035,0,0,0-.225.866c-.1.452-.242.9-.378,1.341a24.921,24.921,0,0,1-4.361,8.516,10.951,10.951,0,0,1-7.394,4.25c-5.112.437-10.23-2.73-13.047-6.851a15.628,15.628,0,0,1-1.94-3.926,16.148,16.148,0,0,1-.591-2.422c-.074-.443-.128-.889-.166-1.337-.024-.275.09-1.228-.066-1.423l-3.028-3.8c.13.164.045.918.06,1.122.076,1,.2,2,.358,2.995a35.512,35.512,0,0,0,2.672,9.095,22.881,22.881,0,0,0,7.05,9.046,16.158,16.158,0,0,0,4.91,2.577c5.2,1.552,10.893-.628,14.319-4.69a21.555,21.555,0,0,0,3.955-8.225c.827-2.949,1.718-6.212,1.14-9.283a8.575,8.575,0,0,0-.421-1.493q-.1-.259-.218-.511c-.4-.848-1.568-2.959-2.794-2.428-.385.167-.745.732-1.039,1.018q-.808.785-1.638,1.546c-1.106,1.014-2.246,1.994-3.43,2.917-1.825,1.421-3.818,3.128-6.175,3.489a4.87,4.87,0,0,1-4.373-1.4,4.987,4.987,0,0,1-.822-4.612,10.47,10.47,0,0,1,2.559-4.11,3.691,3.691,0,0,1,.88-.756,1.392,1.392,0,0,1,1.122-.144A1.322,1.322,0,0,1,311.589,922.859Z" transform="translate(-39.639 -2.585)" fill="#fff"></path>
            <g id="Group_4727" data-name="Group 4727" transform="translate(156.797 909.923)">
                <path id="Path_557" data-name="Path 557" d="M190.894,941.636c.786-3.486,1.463-6.985,1.934-10.529a71.431,71.431,0,0,0,.7-12.637,33.224,33.224,0,0,0-.4-3.568c-.166-1.057-.011-2.31-.694-3.19-.522-.671-5.037,3.221-6.227,4.221-3.35,2.814-6.787,5.654-9.959,8.7a15.419,15.419,0,0,0-3.722,5.018,7.907,7.907,0,0,0-.675,3.132,4.912,4.912,0,0,0,1.572,3.683,5.746,5.746,0,0,0,1.442.91c.382.183.768.354,1.162.509a21.05,21.05,0,0,0,2.424.77q.31.08.622.154c.59.138,1.182.262,1.777.379a22.15,22.15,0,0,1,4.323,1.429,7.578,7.578,0,0,1,2.413,1.394c.049.049-.017.47-.017.539a14,14,0,0,0,.067,1.442,12.629,12.629,0,0,0,1.122,4.249,5.92,5.92,0,0,0,2.233,2.8,1.783,1.783,0,0,0,2.343-1.177,7.269,7.269,0,0,0-.161-4.535,11.224,11.224,0,0,0-.819-2.039,4.616,4.616,0,0,0-.646-.907C191.625,942.29,190.882,941.688,190.894,941.636Zm-3.07-2.083c.026-.126-1.228-.765-1.328-.821a23.593,23.593,0,0,0-6.916-2.522c-.983-.2-1.986-.26-2.968-.445-.873-.164-2.213-.663-2-1.782a1.894,1.894,0,0,1,.247-.6,9.356,9.356,0,0,1,2.388-2.891q2.227-2.06,4.458-4.118c1.721-1.587,3.419-3.2,5.151-4.775.872-.8,1.743-1.6,2.651-2.354.585-.486.462.315.466.755q.007.9-.033,1.8c-.126,2.835-.334,5.631-.651,8.451q-.349,3.1-.876,6.183Q188.146,938,187.824,939.552Z" transform="translate(-171.849 -911.635)" fill="#fff"></path>
            </g>
            <g id="Group_4732" data-name="Group 4732" transform="translate(97.677 903.075)">
                <g id="Group_4728" data-name="Group 4728" transform="translate(19.903 36.879)">
                    <path id="Path_558" data-name="Path 558" d="M129.221,949.173c0,7.595-1.564,17.681-6.666,22.53h14.273c-5.1-4.849-6.667-14.936-6.667-22.53Z" transform="translate(-122.555 -949.173)"></path>
                </g>
                <g id="Group_4729" data-name="Group 4729" transform="translate(13.554)">
                    <path id="Path_559" data-name="Path 559" d="M128.137,930.111a13.518,13.518,0,1,0-13.518-13.518A13.518,13.518,0,0,0,128.137,930.111Z" transform="translate(-114.619 -903.075)" fill="#1a1818"></path>
                    <path id="Path_560" data-name="Path 560" d="M119.245,919.145s.689-.547.952-.8a8.845,8.845,0,0,1,.686-.653c.428-.366.6-.41.958-.737a2.024,2.024,0,0,1,.994-.669,4.152,4.152,0,0,0,1.276-.509c.465-.266.454-.474.79-.626a2.589,2.589,0,0,1,1.49-.35,3.08,3.08,0,0,0,1.3-.1,3.34,3.34,0,0,1,.851-.076c.481-.026,1.4-.041,1.644-.018a5.458,5.458,0,0,0,.9.093,2.9,2.9,0,0,1,1.167.074c.49.149.84.336,1.256.418a1.634,1.634,0,0,1,1.09.525c.223.332.2.472.792.714a11.425,11.425,0,0,0,1.434.575c.837.266.708.378,1.1.632s.294.326.64.446.556.177.556.177a.782.782,0,0,0,.117.267,3.393,3.393,0,0,0,.26.366c.111.165.183.264.183.264l.182.161s-.162.146-.392.364-.155.353-.562.441a1.467,1.467,0,0,0-.664.41,2.246,2.246,0,0,0-.771.317,4.978,4.978,0,0,1-.9.526,1.922,1.922,0,0,1-.437.193l-.193.251-.5.2s-.066.035-.667.343a3.491,3.491,0,0,1-1.178.472,1.727,1.727,0,0,1-.513.026.5.5,0,0,1-.325.326c-.238.047-.448-.044-.648.069a7.175,7.175,0,0,1-.911.288,1.621,1.621,0,0,0-.6.3c-.232.182-.3.186-.3.186s-.757-.032-1.03-.05-1.661-.358-2.147-.435-1.19-.389-1.429-.409-1.125-.555-1.332-.581a5.052,5.052,0,0,1-1.087-.458,7.45,7.45,0,0,1-1.307-.79c-.431-.389-.612-.515-1-.838s-.717-.613-.966-.774S119.245,919.145,119.245,919.145Z" transform="translate(-115.544 -905.378)" fill="#fff"></path>
                    <path id="Path_561" data-name="Path 561" d="M130.22,915.978l-.428.366-.515-.009s-.32.463-.624.546a7.569,7.569,0,0,1-.847.146l.018.343a2.465,2.465,0,0,1-.32.46c-.194.215-.3.221-.3.221l-.2.01.221.3a4.021,4.021,0,0,1,.035.685c-.021.274-.226.285-.226.285a4.323,4.323,0,0,1,.221.915,1.552,1.552,0,0,0,.166.608,4.319,4.319,0,0,1,.313.7c.043.2.112.232.359.358s.238-.013.421.184.186.231.186.231l.322.257a.967.967,0,0,1,.412.013,1.569,1.569,0,0,0,.38.084s.2-.078.456.182a1.441,1.441,0,0,0,.667.342l.886-.149a5.066,5.066,0,0,0,1.027-.634c.134-.074.323-.463.649-.754a3.848,3.848,0,0,0,.575-.817.961.961,0,0,0,.329-.911,7.2,7.2,0,0,0-.138-1.362c-.088-.34-.1-.612-.351-.84s-.478-.593-.694-.787-.327-.362-.536-.419-.454-.15-.77-.269-.313-.086-.523-.178-.315-.19-.451-.147-.272.082-.127.212.178.161.221.3-.022.208.149.2a.788.788,0,0,0,.3-.084,1.232,1.232,0,0,1,.479.007c.209.06.182.164.356.223s.415.078.527.246a3.242,3.242,0,0,0,.326.362c.11.13.352.223.4.494a3.52,3.52,0,0,0,.244.739,1.687,1.687,0,0,1,.133.578,1.289,1.289,0,0,1,0,.752.366.366,0,0,1-.3.221s.327.363.133.578-.2.078-.4.294a1.3,1.3,0,0,1-.5.3c-.131.078.03.513-.21.526s-.264.183-.6.339-.428.3-.6.307-.214-.092-.482-.01-.091.175-.438.126-.318-.19-.729-.169-.386-.118-.6-.277a2.582,2.582,0,0,0-.706-.41c-.209-.057-.5-.315-.7-.957a15.1,15.1,0,0,1-.262-1.77c-.083-.3.174-.662.3-.838a3.658,3.658,0,0,1,.679-.787c.264-.187.228-.186.371-.09s.318.118.057.408a1.779,1.779,0,0,0-.6,1.094,2.1,2.1,0,0,0-.006,1.2,3.1,3.1,0,0,0,.317.842,2.225,2.225,0,0,1,.292.362.812.812,0,0,0,.36.326,3.271,3.271,0,0,0,.594.242,4.1,4.1,0,0,0,.63.244,1.724,1.724,0,0,0,.592.14,2.456,2.456,0,0,0,.513-.026,1.13,1.13,0,0,0,.327-.258l.364-.292.321-.393a4.991,4.991,0,0,0,.394-.33,2.319,2.319,0,0,0,.374-.706,5.053,5.053,0,0,0,.238-.765,1.2,1.2,0,0,0-.071-.684c-.113-.2-.3-.5-.414-.73a1.368,1.368,0,0,0-.474-.526,1.315,1.315,0,0,0-.567-.346c-.314-.087-.559-.177-.731-.2s-.124.209-.115.382-.051.382.154.371.187-.35.5-.231.417.042.7.3.285.23.406.564.284.152.269.533.129.507,0,.653-.165.111-.189.318.155.333-.078.482-.339.089-.431.3-.057.276-.283.493-.218.391-.625.479a2.793,2.793,0,0,1-.923.048,1.852,1.852,0,0,1-1.073-.186,1.607,1.607,0,0,1-.764-.851,2.308,2.308,0,0,1-.238-1.325c.116-.35.234-.767.325-.978s.211-.593.414-.638.336-.088.675-.174a5.583,5.583,0,0,1,.853-.111l.018-.274a.3.3,0,0,1-.308.016c-.14-.1.078-.358-.163-.345a2.01,2.01,0,0,0-.632.206c-.338.121-.234.122-.4.13s-.429-.035-.309-.2a.565.565,0,0,1,.475-.256c.231-.012.4-.15.583-.158a.621.621,0,0,0,.23-.038S130.206,916.21,130.22,915.978Z" transform="translate(-117.095 -905.646)" fill="#1a1818"></path>
                    <path id="Path_562" data-name="Path 562" d="M131.163,918.346a2.167,2.167,0,0,0,.41-.021.945.945,0,0,1,.523.178,2.631,2.631,0,0,1,.747.527,2.2,2.2,0,0,1,.374.778,4.007,4.007,0,0,1-.188.833,1.432,1.432,0,0,1-.583.648,7.368,7.368,0,0,1-.78.349,1.958,1.958,0,0,1-.877-.058,1.188,1.188,0,0,1-.586-.381c-.166-.223-.374-.29-.461-.465a2.222,2.222,0,0,1,0-1,4.611,4.611,0,0,1,.568-.954c.311-.454.465-.461.465-.461S130.956,918.332,131.163,918.346Zm-.355,1.587a1.732,1.732,0,0,1-.138.316c-.072.107.115.251.226.374s.262.115.469.13.284.011.593.021.3-.067.672-.421.131-.443.144-.7-.142-.275-.522-.667-.53-.282-.632-.276-.27.246-.27.246-.174.111-.4.226-.094.159-.1.545S130.854,919.829,130.808,919.934Zm-.6.828c.114.2.218.221.218.221s.215.194.349.29a.278.278,0,0,0,.283.011,2.265,2.265,0,0,1-.14-.224c-.085-.15-.134-.1-.217-.22a3.765,3.765,0,0,0-.251-.372c-.137-.174-.262-.09-.262-.09A.432.432,0,0,0,130.208,920.762Zm.3-1.146c.142-.239.086-.339.086-.339a2.809,2.809,0,0,0-.318.325.453.453,0,0,0-.01.31A.845.845,0,0,0,130.508,919.615Z" transform="translate(-117.632 -906.123)" fill="#1a1818"></path>
                    <path id="Path_563" data-name="Path 563" d="M129.687,912.02s.071.067-.4.159a3.356,3.356,0,0,1-.78.143c-.446.022-.485-.046-.752.07a2.575,2.575,0,0,1-1.017.226,2.758,2.758,0,0,0-.914.218c-.269.081-.511.062-.882.148a4.532,4.532,0,0,0-.879.216c-.235.115-.516.026-.879.286a3.111,3.111,0,0,0-.755.621c-.318.428-.773.351-1.042.433-.2.762-.48.166-.558.473-.114.453-.462.271-.525.474-.144.455-.286.426-.554.543s-.614.138-.736.382-.079.447-.242.595.214.227.194.469-.19.286-.361.3.082-.352-.158-.371-.355-.287-.551-.107-.214.458-.379.637-.368.154-.5.3-.478.025-.394.329a2.513,2.513,0,0,0,.871.949,4.418,4.418,0,0,0,.673.447,1.683,1.683,0,0,1,.745.475c.293.326.2.5.618.653a2.522,2.522,0,0,1,.986.531c.218.23.689.72.689.72a4.224,4.224,0,0,1-.842-.368c-.282-.191-.4-.458-.713-.545s-.43-.29-.716-.548a3.007,3.007,0,0,0-.89-.674,7.494,7.494,0,0,1-1.142-.831c-.32-.225-.675-.447-.649-.619a3.137,3.137,0,0,0,.01-.479.685.685,0,0,0,.508-.129c.231-.183.194-.284.316-.531s-.018-.343.451-.537.374-.126.53-.372.19-.318.391-.4.158-.178.526-.4.437-.264.674-.276.2-.184.182-.456a.588.588,0,0,1,.619-.578,1.546,1.546,0,0,0,1-.534l.258-.354s.722.1.954-.085.755-.691.755-.691a18.014,18.014,0,0,1,2.136-.451c.545-.028,1.391-.21,1.666-.224a6.923,6.923,0,0,1,1.157-.2A9.451,9.451,0,0,1,129.687,912.02Z" transform="translate(-114.945 -904.857)" fill="#fff"></path>
                    <path id="Path_564" data-name="Path 564" d="M123.847,925.754a1.809,1.809,0,0,1,.942.311,3.857,3.857,0,0,0,.979.542c.343.162.922.414,1.132.507s.67.042,1.14.172a7.283,7.283,0,0,0,1.219.194,2.394,2.394,0,0,0,.561-.081s-.521-.127-1.09-.2-.754-.167-1.244-.194a4.307,4.307,0,0,1-1.045-.306,4.947,4.947,0,0,1-1.214-.606A2.249,2.249,0,0,0,123.847,925.754Z" transform="translate(-116.464 -907.607)" fill="#fff"></path>
                    <path id="Path_565" data-name="Path 565" d="M145.32,919.944s-.271-.269-.354-.368a4.507,4.507,0,0,1-.286-.55,3.332,3.332,0,0,1,.51.436C145.329,919.635,145.436,919.707,145.32,919.944Z" transform="translate(-120.631 -906.265)" fill="#fff"></path>
                    <path id="Path_566" data-name="Path 566" d="M141.165,917.586a.315.315,0,0,0-.224-.349,1.99,1.99,0,0,1-.718-.452c-.162-.146-.263-.6-.654-.712s-.25.142-.758-.243a2.156,2.156,0,0,1-.623-.611,4.9,4.9,0,0,0-.752-.63,1.808,1.808,0,0,0-1.1-.482,12.31,12.31,0,0,1-1.2-.3c-.208-.041-.216-.194-.68-.222s-.648-.1-.958-.13a2.292,2.292,0,0,0-.88-.108,6.452,6.452,0,0,1-1.028.026c-.256.014-.609.16-.788.17s-.409.046-.409.046.75.09,1.061.126.849.008,1.03.024a2.819,2.819,0,0,1,.925-.022,10.083,10.083,0,0,1,1.274.294c.5.154.626.174,1.1.355s.942.337,1.074.407.836.754,1.05.9.556.3.77.474a1.94,1.94,0,0,0,.556.306c.131.045.413.03.521.128a2.527,2.527,0,0,0,.537.435c.346.213.614.43.72.5A.313.313,0,0,0,141.165,917.586Z" transform="translate(-117.773 -905.125)" fill="#fff"></path>
                    <path id="Path_567" data-name="Path 567" d="M129.315,913.775s-.133-.07-.277.118-.213.371-.5.334-.239-.142-.652-.172-.558.157-.844.094a2.422,2.422,0,0,1-.391-.108s.147-.136.84-.172.406-.1.867-.122S129.148,913.526,129.315,913.775Z" transform="translate(-117.026 -905.19)" fill="#fff"></path>
                    <path id="Path_568" data-name="Path 568" d="M124.361,914.937s.2-.113.6-.365.162-.343.469-.385a2.542,2.542,0,0,0,.534-.13.322.322,0,0,1-.213.37c-.277.117-.36-.007-.631.213s-.242.3-.37.3S124.361,914.937,124.361,914.937Z" transform="translate(-116.567 -905.271)" fill="#fff"></path>
                    <path id="Path_569" data-name="Path 569" d="M132.114,912.751a2.5,2.5,0,0,1,1.084.073,9.9,9.9,0,0,0,1.272.243c.233.013.413.029.672.068a1.912,1.912,0,0,1,.578.227,2.918,2.918,0,0,0,.65.146c.337.06.552.229.758.244a2.7,2.7,0,0,1,.737.322c.237.116.3.242.665.429s.473.207.612.406a6.626,6.626,0,0,0,.89.8,2.494,2.494,0,0,1,.457.388,3.884,3.884,0,0,0,.881.623,6.81,6.81,0,0,1,.8.6c.3.242.592.509.726.606s.038-.259-.23-.477-1.086-1.1-1.381-1.343-.7-.658-1.109-1.048-.609-.354-1.066-.742a3.693,3.693,0,0,0-1.28-.885,5.486,5.486,0,0,0-1.364-.522,7.428,7.428,0,0,1-1.218-.194c-.338-.086-.613.082-.9-.057s-.471-.155-.6-.072a.386.386,0,0,1-.462.024c-.16-.12-.138-.2-.394-.159S132.07,912.394,132.114,912.751Z" transform="translate(-118.117 -904.949)" fill="#fff"></path>
                    <path id="Path_570" data-name="Path 570" d="M145.387,918.2s-.74-.887-.928-1.058-.709-.761-1-.977a8.251,8.251,0,0,1-.994-.823c-.138-.173,1,.514,1.249.785a13.213,13.213,0,0,1,1.058,1.077C145.183,917.72,145.561,918.06,145.387,918.2Z" transform="translate(-120.185 -905.522)" fill="#fff"></path>
                    <path id="Path_571" data-name="Path 571" d="M120.2,917.94s.255-.283.3-.324a1.859,1.859,0,0,0,.409-.3,2.394,2.394,0,0,1,.3-.324c.1-.1.312-.183.386-.251s.275-.143.349-.211.061.177-.125.315-.345.057-.5.232-.329.351-.427.446a1.9,1.9,0,0,1-.341.365C120.345,918.036,120.168,918.1,120.2,917.94Z" transform="translate(-115.734 -905.762)" fill="#fff"></path>
                    <path id="Path_572" data-name="Path 572" d="M118.106,920s-.154-.018-.046-.14a2.964,2.964,0,0,1,.329-.363,2.332,2.332,0,0,0,.3-.234c.048-.066.076-.016.021.154s.058.113-.077.248a.849.849,0,0,1-.285.207C118.256,919.911,118.106,920,118.106,920Z" transform="translate(-115.299 -906.306)" fill="#fff"></path>
                    <path id="Path_573" data-name="Path 573" d="M122.789,916.048a.879.879,0,0,0,.3-.17.822.822,0,0,1,.361-.237c.177-.061.2.067.1.174s-.189.087-.326.158A1.288,1.288,0,0,1,122.789,916.048Z" transform="translate(-116.253 -905.585)" fill="#fff"></path>
                    <path id="Path_574" data-name="Path 574" d="M118.719,920.851c.355.223.422.219.812.473a7.133,7.133,0,0,1,.85.538,4.42,4.42,0,0,0,.936.878c.316.154.789.647,1.1.7s.574.485.992.6a6.929,6.929,0,0,1,1.054.492,5.044,5.044,0,0,0,1.386.34c.653.069.736.306,1.29.381s.8.267,1.25.311.761.054,1.274.073a.523.523,0,0,0,.366-.19,1.679,1.679,0,0,0,.438-.161,4.573,4.573,0,0,1,.741-.208c.234-.08,1.36-.244,1.73-.366s.474-.127.811-.212.13-.145.561-.476a6.63,6.63,0,0,1,1.138-.5,2.548,2.548,0,0,1,.737-.346,3.019,3.019,0,0,0,.83-.557,4.613,4.613,0,0,1,1.167-.61,3.253,3.253,0,0,0,.8-.52c.2-.145,1.326-.891,1.326-.891a1.786,1.786,0,0,1-.556.575,4.316,4.316,0,0,0-.818.694l.536-.2s.362-.327.626-.514.438-.158.669-.308a1.758,1.758,0,0,0,.393-.364,2.827,2.827,0,0,1-.038.587c-.053.279-.757.585-.757.585a1.355,1.355,0,0,1-.768.451c-.444.055-.766.419-.967.5a4.5,4.5,0,0,0-.79.622c-.163.144-.51.1-.818.114a.707.707,0,0,0-.5.334.3.3,0,0,0,.31.016.577.577,0,0,1,.451.079s-.333.222-.8.523a4.691,4.691,0,0,1-1.4.792c-.54.131-1.077.432-1.312.479s-.211-.092.425-.366a5.321,5.321,0,0,1,.8-.35,2,2,0,0,0,.8-.418,1.973,1.973,0,0,0,.462-.4s-.119-.3-.592-.14-.045.449-.8.555-.3.154-.637.238-.593.478-.764.518a4.562,4.562,0,0,1-.946.222,5.629,5.629,0,0,0-1.392.31,5.887,5.887,0,0,1-1.389.313,10.376,10.376,0,0,1-2.174-.264,4.323,4.323,0,0,1-1.042-.254c-.488-.181-.562-.248-.84-.336s-.451-.08-.659-.136a2.278,2.278,0,0,1-.812-.473c-.359-.29-.454-.147-.906-.3s-.244-.055-.594-.175a2.089,2.089,0,0,1-.85-.538,4.683,4.683,0,0,0-.93-.775c-.174-.058-.662-.172-.812-.473a1.87,1.87,0,0,0-.69-.719,5,5,0,0,1-1.033-.77,2.673,2.673,0,0,0-.576-.517S118.363,920.629,118.719,920.851Zm18.795,2.2c.048-.066.141-.251.051-.247s-.074.055-.172.15a.658.658,0,0,1-.161.124C137.112,923.241,137.465,923.12,137.513,923.053Zm.715-.59c.09,0,.2-.114.31-.209s.208-.217.154-.266-.09-.008-.178.035-.2.1-.338.185a.13.13,0,0,0,.051.254Z" transform="translate(-115.262 -906.523)" fill="#fff"></path>
                </g>
                <g id="Group_4730" data-name="Group 4730" transform="translate(26.964 23.397)">
                    <path id="Path_575" data-name="Path 575" d="M144.9,959.356a13.518,13.518,0,1,1,13.518-13.517A13.518,13.518,0,0,1,144.9,959.356Z" transform="translate(-131.381 -932.321)" fill="#1a1818"></path>
                    <path id="Path_576" data-name="Path 576" d="M155.4,948.39s-.689-.546-.952-.8a9.039,9.039,0,0,0-.686-.652c-.428-.366-.6-.41-.958-.737a2.019,2.019,0,0,0-.994-.669,4.135,4.135,0,0,1-1.276-.51c-.465-.265-.454-.473-.79-.626a2.6,2.6,0,0,0-1.49-.35,3.062,3.062,0,0,1-1.3-.1,3.376,3.376,0,0,0-.851-.076c-.481-.025-1.4-.04-1.645-.018a5.355,5.355,0,0,1-.9.092,2.927,2.927,0,0,0-1.167.074c-.49.149-.841.337-1.256.418a1.635,1.635,0,0,0-1.091.526c-.222.333-.2.472-.792.714a11.291,11.291,0,0,1-1.434.575c-.836.266-.706.378-1.1.631s-.293.326-.641.446-.555.178-.555.178a.777.777,0,0,1-.117.266,3.555,3.555,0,0,1-.259.366c-.112.165-.184.264-.184.264l-.182.161s.163.146.393.364.155.352.562.441a1.461,1.461,0,0,1,.663.409,2.222,2.222,0,0,1,.771.317,4.949,4.949,0,0,0,.9.526,1.936,1.936,0,0,0,.437.192l.193.251.5.2s.066.035.667.342a3.466,3.466,0,0,0,1.178.472,1.753,1.753,0,0,0,.513.027.494.494,0,0,0,.324.325c.238.048.449-.044.649.069a6.918,6.918,0,0,0,.911.288,1.626,1.626,0,0,1,.6.3c.232.182.3.186.3.186s.758-.031,1.031-.05,1.661-.358,2.147-.436,1.19-.388,1.429-.408,1.125-.556,1.332-.581a5.051,5.051,0,0,0,1.087-.458,7.5,7.5,0,0,0,1.307-.79c.431-.39.612-.515,1-.838s.717-.613.966-.774S155.4,948.39,155.4,948.39Z" transform="translate(-132.061 -934.624)" fill="#fff"></path>
                    <path id="Path_577" data-name="Path 577" d="M147.723,945.224l.429.366.514-.009s.32.463.624.546a7.434,7.434,0,0,0,.847.147l-.018.342a2.439,2.439,0,0,0,.32.46c.194.216.3.222.3.222l.2.01-.222.3a4.114,4.114,0,0,0-.035.686c.022.274.227.285.227.285a4.363,4.363,0,0,0-.222.914,1.538,1.538,0,0,1-.166.61,4.335,4.335,0,0,0-.313.7c-.042.2-.111.233-.359.358s-.237-.012-.421.184-.185.232-.185.232l-.322.257a.968.968,0,0,0-.412.014,1.6,1.6,0,0,1-.38.083s-.206-.078-.456.182a1.444,1.444,0,0,1-.667.342l-.886-.149a5.058,5.058,0,0,1-1.027-.634c-.134-.075-.323-.464-.65-.754a3.893,3.893,0,0,1-.575-.818.963.963,0,0,1-.329-.91,7.252,7.252,0,0,1,.138-1.362c.088-.339.1-.612.352-.841s.477-.592.693-.786.327-.363.536-.419.454-.15.769-.269.314-.086.524-.179.315-.189.451-.146.272.082.127.212-.179.162-.221.3.021.206-.149.2a.773.773,0,0,1-.3-.083,1.215,1.215,0,0,0-.479.007c-.21.06-.182.164-.355.222s-.416.078-.528.246a3.23,3.23,0,0,1-.327.362c-.11.13-.352.222-.4.494a3.574,3.574,0,0,1-.244.74,1.644,1.644,0,0,0-.133.578,1.29,1.29,0,0,0,0,.752.366.366,0,0,0,.3.221s-.327.363-.133.578.2.078.4.294a1.309,1.309,0,0,0,.5.3c.13.077-.03.513.21.525s.264.184.6.339.428.3.6.308.214-.092.483-.01.09.175.437.126.318-.19.729-.169.385-.118.6-.278a2.6,2.6,0,0,1,.706-.41c.209-.057.5-.314.7-.957a15.063,15.063,0,0,0,.262-1.77c.082-.3-.174-.662-.3-.839a3.7,3.7,0,0,0-.679-.787c-.264-.187-.229-.186-.371-.09s-.318.118-.057.409a1.783,1.783,0,0,1,.6,1.094,2.1,2.1,0,0,1,.006,1.2,3.126,3.126,0,0,1-.317.842,2.243,2.243,0,0,0-.292.361.8.8,0,0,1-.361.326,3.261,3.261,0,0,1-.594.242,4.181,4.181,0,0,1-.63.244,1.726,1.726,0,0,1-.592.14,2.443,2.443,0,0,1-.513-.026,1.129,1.129,0,0,1-.327-.258l-.365-.293-.32-.392a4.891,4.891,0,0,1-.394-.329,2.328,2.328,0,0,1-.374-.707,5.081,5.081,0,0,1-.238-.765,1.2,1.2,0,0,1,.071-.684c.113-.2.3-.5.414-.731a1.36,1.36,0,0,1,.474-.525,1.311,1.311,0,0,1,.567-.346c.314-.087.559-.177.73-.2s.125.209.116.382.051.382-.154.371-.188-.35-.5-.232-.417.043-.7.3-.285.23-.4.564-.284.152-.269.533-.129.507,0,.653.164.11.189.318-.155.333.078.483.338.088.431.3.056.275.283.493.218.39.624.479a2.772,2.772,0,0,0,.923.047,1.853,1.853,0,0,0,1.074-.185,1.616,1.616,0,0,0,.764-.851,2.308,2.308,0,0,0,.238-1.325c-.117-.35-.233-.768-.326-.979s-.21-.593-.414-.638-.336-.087-.675-.173a5.582,5.582,0,0,0-.853-.111l-.018-.274a.3.3,0,0,0,.307.016c.14-.1-.078-.358.162-.346a2.007,2.007,0,0,1,.633.206c.337.12.234.122.4.13s.43-.036.31-.2a.564.564,0,0,0-.475-.255c-.231-.012-.4-.15-.584-.158a.625.625,0,0,1-.229-.038S147.737,945.456,147.723,945.224Z" transform="translate(-133.812 -934.892)" fill="#1a1818"></path>
                    <path id="Path_578" data-name="Path 578" d="M148.135,947.56s.154.009.465.462a4.559,4.559,0,0,1,.567.955,2.219,2.219,0,0,1,0,1c-.086.176-.3.242-.461.466a1.185,1.185,0,0,1-.586.381,1.936,1.936,0,0,1-.877.057,6.986,6.986,0,0,1-.779-.348,1.431,1.431,0,0,1-.584-.647,4.026,4.026,0,0,1-.189-.833,2.208,2.208,0,0,1,.374-.778,2.652,2.652,0,0,1,.747-.527.944.944,0,0,1,.523-.178,2.255,2.255,0,0,0,.41.022C147.954,947.577,148.135,947.56,148.135,947.56Zm-.073,1.411c-.006-.386.125-.43-.1-.545s-.4-.226-.4-.226-.167-.241-.27-.246-.251-.116-.631.276-.535.41-.523.667-.224.348.144.7.363.43.672.421.386-.006.593-.021.36-.007.47-.13.3-.267.225-.374a1.735,1.735,0,0,1-.138-.315C148.057,949.074,148.068,949.358,148.062,948.971Zm.661.651s-.125-.083-.262.09a3.735,3.735,0,0,0-.25.373c-.084.124-.132.07-.218.22a2.272,2.272,0,0,1-.14.224.28.28,0,0,0,.284-.011c.134-.1.349-.29.349-.29s.1-.02.217-.22A.431.431,0,0,0,148.723,949.622Zm-.079-.467a.445.445,0,0,0-.01-.309,2.877,2.877,0,0,0-.318-.325s-.057.1.086.338A.845.845,0,0,0,148.644,949.155Z" transform="translate(-134.243 -935.368)" fill="#1a1818"></path>
                    <path id="Path_579" data-name="Path 579" d="M146.747,941.266s-.07.066.4.159a3.4,3.4,0,0,0,.78.142c.446.023.485-.046.752.071a2.571,2.571,0,0,0,1.017.226,2.784,2.784,0,0,1,.914.218c.269.082.511.062.882.149a4.538,4.538,0,0,1,.879.215c.235.115.517.027.879.287a3.143,3.143,0,0,1,.755.621c.318.428.773.351,1.042.433.2.762.48.166.557.472.115.453.462.272.526.474.143.454.286.426.554.542s.614.138.736.382.079.447.242.594-.214.227-.2.469.192.286.362.3-.082-.351.158-.37.354-.287.551-.107.214.458.379.637.368.154.5.3.478.025.394.329a2.513,2.513,0,0,1-.872.948,4.4,4.4,0,0,1-.672.447,1.686,1.686,0,0,0-.744.476c-.294.326-.2.5-.619.653a2.51,2.51,0,0,0-.986.531c-.218.23-.69.72-.69.72a4.279,4.279,0,0,0,.842-.368c.283-.192.4-.458.713-.545s.43-.29.717-.549a3,3,0,0,1,.89-.674,7.533,7.533,0,0,0,1.142-.831c.32-.225.675-.448.649-.619a3.189,3.189,0,0,1-.011-.48.678.678,0,0,1-.507-.129c-.232-.182-.194-.283-.317-.53s.018-.343-.45-.538-.373-.125-.531-.371-.189-.318-.391-.4-.158-.178-.526-.4-.436-.264-.673-.275-.2-.184-.182-.457a.589.589,0,0,0-.619-.578,1.541,1.541,0,0,1-1-.534l-.258-.354s-.722.1-.954-.085-.754-.691-.754-.691a18.044,18.044,0,0,0-2.138-.451c-.545-.029-1.39-.21-1.666-.224a6.929,6.929,0,0,0-1.157-.2A9.457,9.457,0,0,0,146.747,941.266Z" transform="translate(-134.453 -934.103)" fill="#fff"></path>
                    <path id="Path_580" data-name="Path 580" d="M154.454,955a1.808,1.808,0,0,0-.942.311,3.853,3.853,0,0,1-.979.541c-.343.162-.922.415-1.132.507s-.671.042-1.14.173a7.374,7.374,0,0,1-1.219.194,2.449,2.449,0,0,1-.562-.081s.521-.127,1.09-.2.754-.166,1.244-.193a4.337,4.337,0,0,0,1.044-.306,4.895,4.895,0,0,0,1.214-.606A2.247,2.247,0,0,1,154.454,955Z" transform="translate(-134.8 -936.853)" fill="#fff"></path>
                    <path id="Path_581" data-name="Path 581" d="M134.3,949.19s.27-.27.353-.368a4.509,4.509,0,0,0,.286-.55,3.4,3.4,0,0,0-.511.435C134.292,948.881,134.187,948.952,134.3,949.19Z" transform="translate(-131.955 -935.511)" fill="#fff"></path>
                    <path id="Path_582" data-name="Path 582" d="M135.936,946.832a.313.313,0,0,1,.224-.348,1.991,1.991,0,0,0,.718-.452c.162-.146.262-.6.654-.712s.25.142.758-.243a2.181,2.181,0,0,0,.623-.61,4.782,4.782,0,0,1,.752-.63,1.809,1.809,0,0,1,1.1-.484c.6-.1.99-.258,1.2-.3s.216-.194.68-.222.648-.1.958-.13a2.312,2.312,0,0,1,.881-.109,6.343,6.343,0,0,0,1.026.027c.257.014.609.16.788.17s.41.046.41.046l-1.061.126c-.31.035-.849.007-1.03.024a2.836,2.836,0,0,0-.925-.022,10.259,10.259,0,0,0-1.275.294c-.5.154-.626.174-1.1.354s-.942.338-1.075.408-.836.754-1.049.9-.556.306-.77.474a1.922,1.922,0,0,1-.555.306c-.131.045-.414.03-.522.128a2.5,2.5,0,0,1-.536.434c-.346.214-.614.431-.721.5A.3.3,0,0,1,135.936,946.832Z" transform="translate(-132.291 -934.371)" fill="#fff"></path>
                    <path id="Path_583" data-name="Path 583" d="M149.814,943.021s.133-.07.277.117.213.371.5.334.238-.142.651-.172.558.158.843.1a2.377,2.377,0,0,0,.392-.109s-.148-.136-.84-.172-.406-.1-.868-.122S149.981,942.772,149.814,943.021Z" transform="translate(-135.067 -934.436)" fill="#fff"></path>
                    <path id="Path_584" data-name="Path 584" d="M155.031,944.183s-.2-.114-.6-.366-.162-.342-.469-.384a2.57,2.57,0,0,1-.534-.13.322.322,0,0,0,.213.371c.277.117.36-.007.631.213s.242.3.37.3S155.031,944.183,155.031,944.183Z" transform="translate(-135.789 -934.517)" fill="#fff"></path>
                    <path id="Path_585" data-name="Path 585" d="M144.968,942a2.481,2.481,0,0,0-1.084.073,9.629,9.629,0,0,1-1.272.242c-.232.014-.413.03-.672.069a1.933,1.933,0,0,0-.578.227,3,3,0,0,1-.65.146c-.338.06-.552.229-.758.243a2.663,2.663,0,0,0-.736.322c-.238.116-.3.242-.666.429s-.474.206-.612.4a6.583,6.583,0,0,1-.89.8,2.51,2.51,0,0,0-.458.389,3.872,3.872,0,0,1-.88.622,6.893,6.893,0,0,0-.8.6c-.3.242-.592.509-.726.606s-.038-.259.23-.477,1.086-1.1,1.381-1.343.7-.658,1.108-1.048.61-.355,1.067-.742a3.692,3.692,0,0,1,1.28-.886,5.51,5.51,0,0,1,1.364-.521,7.347,7.347,0,0,0,1.218-.194c.338-.085.613.084.9-.056s.471-.156.6-.072a.384.384,0,0,0,.461.024c.161-.121.139-.2.394-.16S145.013,941.639,144.968,942Z" transform="translate(-131.93 -934.194)" fill="#fff"></path>
                    <path id="Path_586" data-name="Path 586" d="M133.661,947.444s.741-.888.929-1.058.708-.761,1-.978a8.324,8.324,0,0,0,.994-.822c.138-.173-1,.514-1.249.784a13.348,13.348,0,0,0-1.058,1.077C133.866,946.965,133.488,947.306,133.661,947.444Z" transform="translate(-131.828 -934.768)" fill="#fff"></path>
                    <path id="Path_587" data-name="Path 587" d="M159.146,947.186s-.255-.283-.3-.325a1.822,1.822,0,0,1-.409-.3,2.35,2.35,0,0,0-.3-.324c-.1-.1-.312-.183-.386-.252s-.275-.142-.349-.21-.061.177.125.314.344.057.5.232.33.351.427.446a1.85,1.85,0,0,0,.341.365C159,947.281,159.177,947.341,159.146,947.186Z" transform="translate(-136.575 -935.008)" fill="#fff"></path>
                    <path id="Path_588" data-name="Path 588" d="M161.508,949.242s.156-.018.046-.139a2.957,2.957,0,0,0-.328-.363,2.274,2.274,0,0,1-.3-.234c-.049-.067-.077-.017-.022.154s-.057.113.078.248a.855.855,0,0,0,.285.207C161.359,949.158,161.508,949.242,161.508,949.242Z" transform="translate(-137.28 -935.552)" fill="#fff"></path>
                    <path id="Path_589" data-name="Path 589" d="M156.8,945.293a.869.869,0,0,1-.3-.169.824.824,0,0,0-.361-.238c-.177-.06-.2.067-.1.174s.188.087.326.158A1.265,1.265,0,0,0,156.8,945.293Z" transform="translate(-136.301 -934.831)" fill="#fff"></path>
                    <path id="Path_590" data-name="Path 590" d="M156.132,949.561a2.638,2.638,0,0,0-.577.517,5.022,5.022,0,0,1-1.033.77,1.879,1.879,0,0,0-.69.719c-.15.3-.638.414-.811.473a4.705,4.705,0,0,0-.93.774,2.094,2.094,0,0,1-.851.538c-.35.12-.142.025-.594.174s-.546.007-.906.3a2.274,2.274,0,0,1-.812.472c-.208.057-.382.048-.659.137s-.352.155-.84.336a4.354,4.354,0,0,1-1.042.254,10.471,10.471,0,0,1-2.174.264,5.883,5.883,0,0,1-1.388-.313,5.593,5.593,0,0,0-1.392-.31,4.566,4.566,0,0,1-.946-.222c-.172-.042-.428-.434-.764-.518s.113-.133-.638-.238-.32-.393-.794-.555-.592.139-.592.139a1.939,1.939,0,0,0,.461.4,1.981,1.981,0,0,0,.8.417,5.331,5.331,0,0,1,.8.351c.635.274.66.413.425.366s-.773-.349-1.312-.479a4.693,4.693,0,0,1-1.4-.793c-.463-.3-.8-.523-.8-.523a.581.581,0,0,1,.451-.079.3.3,0,0,0,.31-.016.71.71,0,0,0-.5-.334c-.308-.016-.654.03-.818-.113a4.425,4.425,0,0,0-.79-.622c-.2-.078-.524-.442-.968-.5a1.355,1.355,0,0,1-.767-.451s-.7-.306-.757-.586a2.821,2.821,0,0,1-.038-.586,1.78,1.78,0,0,0,.393.364c.23.15.4.121.669.307s.626.514.626.514l.537.2a4.352,4.352,0,0,0-.819-.694,1.794,1.794,0,0,1-.556-.575s1.129.746,1.326.891a3.29,3.29,0,0,0,.8.52,4.651,4.651,0,0,1,1.168.61,2.994,2.994,0,0,0,.829.557,2.544,2.544,0,0,1,.738.347,6.5,6.5,0,0,1,1.138.5c.43.331.224.39.561.475s.442.09.812.213,1.5.286,1.73.366a4.666,4.666,0,0,1,.741.209,1.7,1.7,0,0,0,.438.16.52.52,0,0,0,.366.19c.512-.018.824-.028,1.274-.072s.7-.238,1.25-.312.637-.31,1.29-.38a5.108,5.108,0,0,0,1.387-.339,6.74,6.74,0,0,1,1.054-.493c.418-.117.681-.55.992-.6s.783-.545,1.1-.7a4.421,4.421,0,0,0,.936-.877,7.1,7.1,0,0,1,.85-.538c.39-.253.457-.25.812-.473S156.132,949.561,156.132,949.561Zm-19.4,2.766a.686.686,0,0,1-.161-.124c-.1-.1-.083-.146-.172-.15s0,.18.051.247S136.852,952.487,136.732,952.327Zm-.866-.674a.15.15,0,0,0-.08-.2,3.84,3.84,0,0,0-.337-.185c-.088-.043-.125-.084-.178-.035s.042.17.153.266.221.2.311.208A.15.15,0,0,0,135.866,951.652Z" transform="translate(-131.666 -935.769)" fill="#fff"></path>
                </g>
                <g id="Group_4731" data-name="Group 4731" transform="translate(0 23.397)">
                    <path id="Path_591" data-name="Path 591" d="M111.195,959.356a13.518,13.518,0,1,0-13.518-13.517A13.518,13.518,0,0,0,111.195,959.356Z" transform="translate(-97.677 -932.321)" fill="#1a1818"></path>
                    <path id="Path_592" data-name="Path 592" d="M102.3,948.39s.689-.546.952-.8a9.044,9.044,0,0,1,.686-.652c.428-.366.6-.41.958-.737a2.019,2.019,0,0,1,.994-.669,4.123,4.123,0,0,0,1.275-.51c.466-.265.455-.473.791-.626a2.594,2.594,0,0,1,1.489-.35,3.067,3.067,0,0,0,1.3-.1,3.375,3.375,0,0,1,.851-.076c.481-.025,1.4-.04,1.645-.018a5.353,5.353,0,0,0,.9.092,2.931,2.931,0,0,1,1.168.074c.49.149.84.337,1.255.418a1.632,1.632,0,0,1,1.091.526c.223.333.2.472.793.714a11.374,11.374,0,0,0,1.434.575c.837.266.708.378,1.1.631s.293.326.64.446.556.178.556.178a.777.777,0,0,0,.117.266,3.438,3.438,0,0,0,.259.366c.111.165.184.264.184.264l.182.161s-.163.146-.393.364-.155.352-.562.441a1.46,1.46,0,0,0-.663.409,2.216,2.216,0,0,0-.771.317,5,5,0,0,1-.9.526,1.936,1.936,0,0,1-.437.192l-.193.251-.5.2s-.066.035-.667.342a3.466,3.466,0,0,1-1.178.472,1.753,1.753,0,0,1-.513.027.494.494,0,0,1-.324.325c-.239.048-.45-.044-.649.069a6.957,6.957,0,0,1-.911.288,1.636,1.636,0,0,0-.6.3c-.231.182-.3.186-.3.186s-.757-.031-1.03-.05-1.661-.358-2.147-.436-1.19-.388-1.429-.408-1.125-.556-1.332-.581a5.052,5.052,0,0,1-1.087-.458,7.5,7.5,0,0,1-1.307-.79c-.432-.39-.612-.515-1-.838s-.717-.613-.966-.774S102.3,948.39,102.3,948.39Z" transform="translate(-98.602 -934.624)" fill="#fff"></path>
                    <path id="Path_593" data-name="Path 593" d="M113.278,945.224l-.427.366-.515-.009s-.32.463-.624.546a7.464,7.464,0,0,1-.847.147l.018.342a2.439,2.439,0,0,1-.32.46c-.2.216-.3.222-.3.222l-.2.01.221.3a4.024,4.024,0,0,1,.035.686c-.021.274-.226.285-.226.285a4.327,4.327,0,0,1,.221.914,1.538,1.538,0,0,0,.166.61,4.337,4.337,0,0,1,.313.7c.042.2.112.233.359.358s.238-.012.421.184.186.232.186.232l.322.257a.968.968,0,0,1,.412.014,1.6,1.6,0,0,0,.38.083s.2-.078.456.182a1.441,1.441,0,0,0,.667.342l.886-.149a5.044,5.044,0,0,0,1.028-.634c.134-.075.323-.464.649-.754a3.834,3.834,0,0,0,.575-.818.96.96,0,0,0,.329-.91,7.265,7.265,0,0,0-.138-1.362c-.088-.339-.1-.612-.352-.841s-.478-.592-.694-.786-.326-.363-.535-.419-.454-.15-.77-.269-.313-.086-.523-.179-.315-.189-.451-.146-.272.082-.127.212.178.162.221.3-.022.206.149.2a.778.778,0,0,0,.3-.083,1.215,1.215,0,0,1,.479.007c.209.06.182.164.356.222s.415.078.526.246a3.309,3.309,0,0,0,.327.362c.11.13.353.222.4.494a3.573,3.573,0,0,0,.244.74,1.643,1.643,0,0,1,.133.578,1.288,1.288,0,0,1,0,.752.364.364,0,0,1-.3.221s.327.363.133.578-.2.078-.4.294a1.3,1.3,0,0,1-.5.3c-.131.077.03.513-.211.525s-.263.184-.6.339-.428.3-.6.308-.214-.092-.482-.01-.09.175-.437.126-.318-.19-.729-.169-.386-.118-.6-.278a2.606,2.606,0,0,0-.706-.41c-.209-.057-.5-.314-.7-.957a15.061,15.061,0,0,1-.262-1.77c-.083-.3.174-.662.3-.839a3.677,3.677,0,0,1,.679-.787c.264-.187.228-.186.371-.09s.318.118.057.409a1.775,1.775,0,0,0-.6,1.094,2.1,2.1,0,0,0-.006,1.2,3.1,3.1,0,0,0,.317.842,2.2,2.2,0,0,1,.291.361.8.8,0,0,0,.361.326,3.253,3.253,0,0,0,.594.242,4.21,4.21,0,0,0,.63.244,1.733,1.733,0,0,0,.593.14,2.446,2.446,0,0,0,.513-.026,1.129,1.129,0,0,0,.327-.258l.364-.293.321-.392a4.89,4.89,0,0,0,.394-.329,2.328,2.328,0,0,0,.374-.707,5.084,5.084,0,0,0,.238-.765,1.2,1.2,0,0,0-.071-.684c-.113-.2-.3-.5-.414-.731a1.36,1.36,0,0,0-.474-.525,1.319,1.319,0,0,0-.568-.346c-.313-.087-.558-.177-.73-.2s-.124.209-.115.382-.051.382.154.371.187-.35.5-.232.418.043.7.3.285.23.4.564.285.152.269.533.129.507,0,.653-.165.11-.189.318.155.333-.078.483-.339.088-.431.3-.057.275-.283.493-.218.39-.625.479a2.772,2.772,0,0,1-.923.047,1.851,1.851,0,0,1-1.073-.185,1.613,1.613,0,0,1-.764-.851,2.315,2.315,0,0,1-.239-1.325c.117-.35.234-.768.326-.979s.211-.593.414-.638.336-.087.675-.173a5.582,5.582,0,0,1,.853-.111l.018-.274a.3.3,0,0,1-.307.016c-.14-.1.078-.358-.163-.346a2.01,2.01,0,0,0-.632.206c-.338.12-.234.122-.4.13s-.429-.036-.309-.2a.563.563,0,0,1,.475-.255c.231-.012.4-.15.583-.158a.627.627,0,0,0,.23-.038S113.265,945.456,113.278,945.224Z" transform="translate(-100.153 -934.892)" fill="#1a1818"></path>
                    <path id="Path_594" data-name="Path 594" d="M114.222,947.593a2.248,2.248,0,0,0,.41-.022.94.94,0,0,1,.523.178,2.63,2.63,0,0,1,.747.527,2.193,2.193,0,0,1,.374.778,4.017,4.017,0,0,1-.188.833,1.431,1.431,0,0,1-.584.647,7.04,7.04,0,0,1-.778.348,1.938,1.938,0,0,1-.878-.057,1.185,1.185,0,0,1-.586-.381c-.166-.223-.375-.29-.461-.466a2.219,2.219,0,0,1,0-1,4.611,4.611,0,0,1,.568-.955c.31-.453.465-.462.465-.462S114.015,947.577,114.222,947.593Zm-.355,1.586a1.787,1.787,0,0,1-.138.315c-.072.107.115.252.225.374s.263.115.47.13.283.01.593.021.3-.067.672-.421.131-.444.144-.7-.142-.275-.523-.667-.529-.282-.631-.276-.27.246-.27.246-.174.112-.4.226-.1.159-.1.545S113.913,949.074,113.867,949.179Zm-.6.828c.114.2.217.22.217.22s.216.2.35.29a.278.278,0,0,0,.283.011,2.27,2.27,0,0,1-.14-.224c-.085-.15-.134-.1-.217-.22a3.761,3.761,0,0,0-.251-.373c-.137-.173-.262-.09-.262-.09A.429.429,0,0,0,113.267,950.007Zm.3-1.147c.142-.238.086-.338.086-.338a2.809,2.809,0,0,0-.318.325.447.447,0,0,0-.01.309A.84.84,0,0,0,113.567,948.86Z" transform="translate(-100.69 -935.368)" fill="#1a1818"></path>
                    <path id="Path_595" data-name="Path 595" d="M112.746,941.266s.07.066-.4.159a3.4,3.4,0,0,1-.78.142c-.446.023-.485-.046-.752.071a2.574,2.574,0,0,1-1.017.226,2.78,2.78,0,0,0-.914.218c-.269.082-.511.062-.882.149a4.538,4.538,0,0,0-.879.215c-.235.115-.517.027-.879.287a3.111,3.111,0,0,0-.755.621c-.318.428-.773.351-1.042.433-.2.762-.48.166-.558.472-.114.453-.462.272-.525.474-.144.454-.286.426-.554.542s-.614.138-.736.382-.08.447-.242.594.214.227.194.469-.191.286-.361.3.082-.351-.158-.37-.355-.287-.551-.107-.214.458-.379.637-.368.154-.5.3-.478.025-.394.329a2.517,2.517,0,0,0,.871.948,4.373,4.373,0,0,0,.673.447,1.692,1.692,0,0,1,.745.476c.293.326.2.5.618.653a2.512,2.512,0,0,1,.985.531c.218.23.69.72.69.72a4.28,4.28,0,0,1-.842-.368c-.283-.192-.4-.458-.713-.545s-.43-.29-.716-.549a3.007,3.007,0,0,0-.89-.674,7.534,7.534,0,0,1-1.142-.831c-.32-.225-.675-.448-.649-.619a3.148,3.148,0,0,0,.01-.48.678.678,0,0,0,.507-.129c.232-.182.194-.283.317-.53s-.018-.343.451-.538.373-.125.53-.371.19-.318.391-.4.158-.178.526-.4.437-.264.674-.275.2-.184.182-.457a.589.589,0,0,1,.619-.578,1.541,1.541,0,0,0,1-.534l.258-.354s.722.1.954-.085.754-.691.754-.691a18.059,18.059,0,0,1,2.137-.451c.545-.029,1.39-.21,1.666-.224a6.915,6.915,0,0,1,1.157-.2A9.452,9.452,0,0,1,112.746,941.266Z" transform="translate(-98.003 -934.103)" fill="#fff"></path>
                    <path id="Path_596" data-name="Path 596" d="M106.906,955a1.808,1.808,0,0,1,.942.311,3.853,3.853,0,0,0,.979.541c.343.162.922.415,1.132.507s.67.042,1.14.173a7.367,7.367,0,0,0,1.218.194,2.441,2.441,0,0,0,.562-.081s-.521-.127-1.09-.2-.754-.166-1.245-.193a4.348,4.348,0,0,1-1.044-.306,4.877,4.877,0,0,1-1.214-.606A2.248,2.248,0,0,0,106.906,955Z" transform="translate(-99.523 -936.853)" fill="#fff"></path>
                    <path id="Path_597" data-name="Path 597" d="M128.378,949.19s-.271-.27-.353-.368a4.539,4.539,0,0,1-.286-.55,3.432,3.432,0,0,1,.512.435C128.388,948.881,128.5,948.952,128.378,949.19Z" transform="translate(-103.689 -935.511)" fill="#fff"></path>
                    <path id="Path_598" data-name="Path 598" d="M124.224,946.832a.313.313,0,0,0-.224-.348,1.984,1.984,0,0,1-.718-.452c-.162-.146-.262-.6-.654-.712s-.25.142-.758-.243a2.169,2.169,0,0,1-.623-.61,4.822,4.822,0,0,0-.752-.63,1.811,1.811,0,0,0-1.1-.484c-.6-.1-.991-.258-1.2-.3s-.216-.194-.68-.222-.648-.1-.958-.13a2.306,2.306,0,0,0-.88-.109,6.344,6.344,0,0,1-1.026.027c-.257.014-.61.16-.789.17s-.409.046-.409.046l1.061.126c.31.035.849.007,1.03.024a2.836,2.836,0,0,1,.925-.022,10.213,10.213,0,0,1,1.274.294c.5.154.626.174,1.1.354s.943.338,1.075.408.836.754,1.05.9.555.306.77.474a1.932,1.932,0,0,0,.555.306c.131.045.413.03.521.128a2.512,2.512,0,0,0,.537.434c.346.214.614.431.72.5A.3.3,0,0,0,124.224,946.832Z" transform="translate(-100.831 -934.371)" fill="#fff"></path>
                    <path id="Path_599" data-name="Path 599" d="M112.374,943.021s-.133-.07-.277.117-.213.371-.5.334-.238-.142-.651-.172-.558.158-.844.1a2.379,2.379,0,0,1-.391-.109s.147-.136.84-.172.406-.1.868-.122S112.207,942.772,112.374,943.021Z" transform="translate(-100.084 -934.436)" fill="#fff"></path>
                    <path id="Path_600" data-name="Path 600" d="M107.419,944.183s.2-.114.6-.366.162-.342.469-.384a2.553,2.553,0,0,0,.533-.13.322.322,0,0,1-.212.371c-.277.117-.36-.007-.632.213s-.242.3-.37.3S107.419,944.183,107.419,944.183Z" transform="translate(-99.625 -934.517)" fill="#fff"></path>
                    <path id="Path_601" data-name="Path 601" d="M115.173,942a2.48,2.48,0,0,1,1.084.073,9.629,9.629,0,0,0,1.272.242c.232.014.413.03.672.069a1.933,1.933,0,0,1,.578.227,2.976,2.976,0,0,0,.65.146c.338.06.552.229.758.243a2.663,2.663,0,0,1,.736.322c.238.116.3.242.666.429s.473.206.612.4a6.631,6.631,0,0,0,.89.8,2.517,2.517,0,0,1,.457.389,3.876,3.876,0,0,0,.881.622,6.893,6.893,0,0,1,.8.6c.3.242.592.509.726.606s.038-.259-.23-.477-1.086-1.1-1.381-1.343-.7-.658-1.109-1.048-.61-.355-1.066-.742a3.692,3.692,0,0,0-1.28-.886,5.509,5.509,0,0,0-1.364-.521,7.318,7.318,0,0,1-1.218-.194c-.339-.085-.613.084-.9-.056s-.47-.156-.594-.072a.387.387,0,0,1-.462.024c-.16-.121-.138-.2-.394-.16S115.129,941.639,115.173,942Z" transform="translate(-101.175 -934.194)" fill="#fff"></path>
                    <path id="Path_602" data-name="Path 602" d="M128.447,947.444s-.741-.888-.929-1.058-.708-.761-1-.978a8.324,8.324,0,0,1-.994-.822c-.138-.173,1,.514,1.249.784a13.484,13.484,0,0,1,1.058,1.077C128.242,946.965,128.62,947.306,128.447,947.444Z" transform="translate(-103.243 -934.768)" fill="#fff"></path>
                    <path id="Path_603" data-name="Path 603" d="M103.257,947.186s.255-.283.3-.325a1.823,1.823,0,0,0,.409-.3,2.349,2.349,0,0,1,.3-.324c.1-.1.312-.183.386-.252s.275-.142.349-.21.061.177-.126.314-.344.057-.5.232-.33.351-.427.446a1.851,1.851,0,0,1-.341.365C103.4,947.281,103.227,947.341,103.257,947.186Z" transform="translate(-98.792 -935.008)" fill="#fff"></path>
                    <path id="Path_604" data-name="Path 604" d="M101.165,949.242s-.155-.018-.046-.139a2.964,2.964,0,0,1,.329-.363,2.332,2.332,0,0,0,.3-.234c.048-.067.076-.017.021.154s.058.113-.077.248a.856.856,0,0,1-.286.207C101.315,949.158,101.165,949.242,101.165,949.242Z" transform="translate(-98.358 -935.552)" fill="#fff"></path>
                    <path id="Path_605" data-name="Path 605" d="M105.848,945.293a.869.869,0,0,0,.3-.169.824.824,0,0,1,.361-.238c.177-.06.2.067.1.174s-.189.087-.326.158A1.265,1.265,0,0,1,105.848,945.293Z" transform="translate(-99.311 -934.831)" fill="#fff"></path>
                    <path id="Path_606" data-name="Path 606" d="M101.778,950.1c.355.223.422.22.812.473a7.106,7.106,0,0,1,.85.538,4.421,4.421,0,0,0,.936.877c.316.154.789.647,1.1.7s.575.484.993.6a6.776,6.776,0,0,1,1.054.493,5.109,5.109,0,0,0,1.386.339c.653.07.736.306,1.29.38s.8.267,1.25.312.761.054,1.274.072a.517.517,0,0,0,.366-.19,1.708,1.708,0,0,0,.439-.16,4.643,4.643,0,0,1,.741-.209c.234-.08,1.36-.244,1.73-.366s.476-.128.812-.213.13-.144.561-.475a6.526,6.526,0,0,1,1.137-.5,2.554,2.554,0,0,1,.738-.347,3,3,0,0,0,.83-.557,4.634,4.634,0,0,1,1.167-.61,3.259,3.259,0,0,0,.8-.52c.2-.146,1.326-.891,1.326-.891a1.789,1.789,0,0,1-.555.575,4.314,4.314,0,0,0-.818.694l.536-.2s.362-.326.626-.514.438-.158.669-.307a1.78,1.78,0,0,0,.393-.364,2.821,2.821,0,0,1-.038.586c-.053.279-.757.586-.757.586a1.355,1.355,0,0,1-.768.451c-.443.055-.766.419-.967.5a4.426,4.426,0,0,0-.79.622c-.163.143-.51.1-.818.113a.71.71,0,0,0-.5.334.3.3,0,0,0,.31.016.579.579,0,0,1,.45.079s-.332.223-.8.523a4.684,4.684,0,0,1-1.4.793c-.54.13-1.077.432-1.312.479s-.211-.092.424-.366a5.329,5.329,0,0,1,.8-.351,1.986,1.986,0,0,0,.8-.417,1.963,1.963,0,0,0,.461-.4s-.118-.3-.592-.139-.045.449-.794.555-.3.154-.637.238-.592.477-.764.518a4.563,4.563,0,0,1-.946.222,5.6,5.6,0,0,0-1.391.31,5.89,5.89,0,0,1-1.389.313,10.478,10.478,0,0,1-2.174-.264,4.357,4.357,0,0,1-1.042-.254c-.488-.181-.562-.248-.84-.336s-.451-.08-.66-.137a2.272,2.272,0,0,1-.811-.472c-.359-.29-.454-.147-.906-.3s-.244-.054-.594-.174a2.092,2.092,0,0,1-.85-.538,4.705,4.705,0,0,0-.93-.774c-.174-.058-.662-.172-.812-.473a1.87,1.87,0,0,0-.69-.719,5,5,0,0,1-1.033-.77,2.652,2.652,0,0,0-.576-.517S101.422,949.875,101.778,950.1Zm18.795,2.2c.048-.067.142-.251.051-.247s-.074.055-.172.15a.686.686,0,0,1-.161.124C120.171,952.487,120.524,952.366,120.572,952.3Zm.715-.59c.09,0,.2-.113.31-.208s.208-.217.154-.266-.09-.008-.178.035-.2.1-.338.185a.15.15,0,0,0-.079.2A.148.148,0,0,0,121.288,951.709Z" transform="translate(-98.32 -935.769)" fill="#fff"></path>
                </g>
            </g>
        </g>
    </g>
</svg>