<svg xmlns="http://www.w3.org/2000/svg" viewBox="0 0 512 209.4">
<path fill="#fff" d="M506.6,86.1l-0.1-24.4l-131.2,0.1V42.6l-19.4,0.1l-0.2,38c0,0-2.7-13.1-11.8-17c0,0-4-1.7-11.2-2H41.1
	c0,0-8.5-14.1-0.6-26.2c0,0,9-17.1,37.3-13.3c0,0,14.6,3.3,22.6,7.9c0,0,24.9,13.1,32.2,20.7l4.2,3.5l9-11.8c0,0-16.9-17.4-32-25.5
	c0,0-22.7-15.2-48.2-12.9c0,0-22.2,2.1-33.8,12.8c0,0-9.9,7.1-13,18.5c0,0-1.2,5.3-0.9,10.9c0,0,0.8,7.5,1.8,10.9l1.7,4.2L5.1,61.9
	l0.1,24.3h16.4v119.2h19.7V86.2H117v8.4c0,0-12.6,3.5-17.8,5.7c0,0-19.4,8.8-30.5,16.1c0,0-18.7,12.4-20.3,13.5l-1.4,0.9l3.1,14.7
	c0,0,22,1.1,43.1,20c0,0,17.7,15.3,21.9,22.9c0,0,2.1,3.5,2.3,5c0,0,0.5,4.6,0.4,5.5c-0.1,1,0,6.5,0,6.5h18.7V111
	c0,0,12.1,0.9,18.2,9.5c0,0,5.3,5.8,6.6,11.1c0,0,1,3.5,1.3,4.8l0.2,2c0,0-7-1.8-13,1.6c0,0-6.6,3.6-7.5,12.5c0,0-0.2,8.2,6.4,13.3
	c0,0,11.6,9,23.8-1.9c0,0,7.9-7.1,8.4-18.3c0,0,0.4-8.3-1.6-15.4c0,0-1.7-6.8-6.2-13.7c0,0-4.7-7.6-14.3-14.7c0,0-6.5-4.5-12.7-6.8
	c0,0-6.1-1.7-7.5-1.9c-1.5-0.2-2.3-0.3-2.3-0.3v-6.7l171.1,0.2v73.6c0,0-1.2-6.4-2.9-9.5c0,0-4.3-6.7-6-8.8l-3.7-4.5
	c0,0-0.3-10.6-3.7-17.3c0,0-3.9-7.8-9.4-13.2c0,0-8.2-8.2-18.1-11.2c0,0-18-6-30.9,2.4c0,0-10.1,6.8-9.3,18.3c0,0,0.8,9,7.1,14.3
	c0,0,8,8.5,22.5,3.1c0,0,7.5-3.2,9.3-11.3l0.7-6.5c0,0,7.5,1.4,11,9.9c0,0,2.6,7,1.9,12.6c-0.8,5.5-0.9,6.3-2.8,9.5
	c0,0-5.6,11.4-16.1,13.6c0,0-7.6,2.2-14.2,0.4c0,0-10-2.2-14.7-6.7c0,0-8.6-6.8-12.5-14.5c0,0-3.6-6.3-5.6-14.4c0,0-3-12.8-3-19.5
	l-0.5-10.5l0.1-0.5h-18.7c0,0,0.1,12.4,1.1,19.4c0,0,2.2,14,3.7,18.3c0,0,3,9.8,6.4,15.6c0,0,5.4,9.6,10.4,14.1
	c0,0,4.6,5.2,12.3,9.8c0,0,12.6,8.3,28.9,7.8c0,0,11.1,0,21.4-6.4c0,0,8.4-4.5,11.7-8.4l3.1-3.6l0.9-1.1c0,0,7.2,7.1,11.5,14.9
	c0,0,3.4,6.7,5.2,12c0,0,2.6,9,2.8,11.8l0.3,5.8h19.5V86.3c0,0,13.3-0.9,18.9,4.4c0,0,7.7,5.6,9.2,14l0.6,2.3v98.4h19.6L375.2,86
	L506.6,86.1z M117.8,164l-1.7-2c-0.7-1.2-10.5-10.2-10.5-10.2c-8.9-8.7-29.4-18.2-29.4-18.2l6.6-4.4l13.5-7.4
	c5.6-3.7,21.6-8.6,21.6-8.6L117.8,164z"/>
<path fill-rule="evenodd" clip-rule="evenodd" fill="#EEEEEE" d="M490,144.8c-4.8-0.7-2.9-8.2,1.6-6
	C494.7,140.4,493.5,144.8,490,144.8 M498.2,135.2v-12.3c-3.5,1.4-6.6,3.1-9.9,4.9C491.8,129.9,495.7,131.6,498.2,135.2z
	 M413.4,135.1v-12.3c-3.4,1.3-7,2.6-9.8,5C407.2,129.5,411.1,131.8,413.4,135.1z M390.5,145.3v-28.4h-5.9v-3.5h5
	c-0.4-1.2-0.7-2.3-0.9-3.5v-1.4c0.8-5.4,6.3-8.6,11.3-9.1h2.3c6.8,0.8,11.9,5.5,16.5,10.1c-0.6,1-1.4,2.1-2.2,2.9
	c-4.2-3.6-8.8-7.5-14.4-8.8H401c-5.1,0.7-9.5,3.8-6.6,9.7l48.7,0.1c3.4,0.1,5.7,0.7,7.6,3.4c3.8-3.2,8.4-4.6,12.8-1.3l0.1-2.1h6.8
	c1.7,0.3,3.3,1,4.4,2.2v-2.2h32.1v3.5H503v28.4h-4.8v-2.4c-1.1-5.6-11.3-11.6-16.5-12.2c-0.3-1.2-0.6-2.4-0.7-3.7
	c5.6-3.5,10.8-6.7,17.2-8.8v-1.3h-18.8v28.4h-4.6v-22.8c-1.2-3.2-3.1-5-6.5-5.6l-0.1,28.4h-4.6l-0.1-23.6c-1.6-3.7-6.5-5.2-9.3-1.9
	c2.3,1.4,4.3,3,5.8,5.3c1.9,2.8-0.4,5.9-3.2,6.4h-1.3c-2.3-0.4-3.1-2-4.4-3.5c-0.7,1.8-2.4,3.2-4.3,3.5h-1.2c-2.7-0.5-5-2.9-4-5.9
	c0.5-1.5,1.8-2.6,2.8-3.7c0.8-0.8,2-1.4,2.9-2.1c-1.4-1.2-3.1-2.2-4.9-2.1c-3,0.2-6.3,8-6.7,10v0.3c-0.1,0.4-0.1,0.9-0.1,1.3v2.2
	c0.2,3.4,1.3,8.6,4.6,10.2c-0.4-5.2,7-5.9,7.9-0.9v1.4c-0.5,2.6-2.4,3.9-5,4.3h-1.9c-7-0.8-9.9-8.1-10.3-14.3V131v-1.2
	c0.3-5.2,2.2-9.3,5.7-12.9l-18.5-0.1l0.2,1c1.8,0.3,3.5,1,5,2c1.1,0.7,2.4,1.8,3.1,2.9c2.8,4.1,4.4,12.5-2.2,13.8H423
	c-5.2-1-4.3-8.1,1.4-7.5c-0.3-3.6-2.9-5.7-6.1-6.6l-0.2,23h-4.6v-1.2c-0.4-5.9-10.7-13.1-16.1-13.4c-0.4-1.2-0.8-2.4-1.1-3.6
	c5-3.6,10.8-7.4,17-8.8l0.2-1.4h-18.4v28.4L390.5,145.3L390.5,145.3z"/>
<path fill-rule="evenodd" clip-rule="evenodd" fill="#EEEEEE" d="M420.9,177.3v-17.9h-36.4v-3.8h45.1c1.8,0.3,3.2,1.1,4.4,2.4
	l0.1-2.4H493c1.8,0.3,3,1.1,4.1,2.4v-2.4h9.8v3.8h-4.8v31.4h-5v-25.2c-1.4-3.7-3.9-6.2-8-6.2v31.4H484v-20.2
	c-1.4-2.8-5.6-3.3-6.3,0.3v2.4H473c-0.2-3.5-1.9-5.4-5.2-6.1h-1.3c-4.4,1.3-5.3,6.6-2.1,9.8c0.2-2.4,1.2-4.1,3.8-4.6h1.3
	c5.3,1,5.7,8.2,0.6,9.9c-0.7,0.2-1.3,0.4-2,0.5h-1.4c-5-0.7-8.8-4.2-9.4-9.3v-2.2c1-8.7,10.3-10.9,17.1-6.7c2.1-2.9,6.7-2.6,9.3-0.6
	l0.1-4.6H461c-6.4,1.4-12.6,7.4-13.2,14.3v2c0.4,4.2,1.8,8,5.6,9.9c-0.4-4.7,5.6-6.7,8.1-2.8c2.6,4-1.6,7.7-5.2,8.1H455
	c-7.3-0.6-11.5-7.8-12-14.6l-0.1-1.5v-0.7l0.1-1.5c0.5-5.4,3.3-10.3,7.8-13.1h-11.7v31.4H434l-0.1-25.2c-1.5-3.6-3.9-6.2-8-6.2v31.4
	h-5.1c-0.6-5-2.4-8.1-5.2-11.9c-2.2,2.9-5.9,4.7-9.6,5.2h-1.7c-10.6-0.8-15.1-10.9-15.7-20.4v-1.3v-1.2h5.1l0.1,2
	c0.4,7.4,2.9,14.3,10.6,15.9h1.7c2.9-0.7,5.2-2.3,6.1-5.3c0.8-2.8-0.4-6.3-3.2-7.1c-0.5,6.9-9.6,6.7-10.7,0.5V166
	c0.4-1.8,1.4-3.2,2.9-4.2c0.6-0.4,1.2-0.6,1.9-0.8c6.8-1.5,14,3.7,14.5,10.7c0.1,0.8,0,0.8,0.4,1.4c0.4,0.6,0.9,1.2,1.3,1.8
	C419.8,175.6,420.3,176.5,420.9,177.3"/>
<rect x="5.1" y="4.1" fill="none" width="501.9" height="201.3"/>
</svg>
