<?xml version="1.0" standalone="no"?>
<!DOCTYPE svg PUBLIC "-//W3C//DTD SVG 20010904//EN"
 "http://www.w3.org/TR/2001/REC-SVG-20010904/DTD/svg10.dtd">
<svg version="1.0" xmlns="http://www.w3.org/2000/svg"
 width="503.000000pt" height="503.000000pt" viewBox="0 0 503.000000 503.000000"
 preserveAspectRatio="xMidYMid meet">
<metadata>
Created by potrace 1.14, written by Peter Selinger 2001-2017
</metadata>
<g transform="translate(0.000000,503.000000) scale(0.100000,-0.100000)"
fill="#000000" stroke="none">
<path d="M2300 4538 c-8 -21 -9 -22 -10 -3 -1 11 -4 15 -6 8 -4 -8 -14 -9 -35
-3 -27 8 -29 7 -18 -6 10 -12 9 -13 -6 -8 -14 6 -16 4 -11 -7 4 -8 0 -5 -8 5
-12 15 -16 16 -16 5 0 -11 -9 -14 -36 -11 -22 3 -34 1 -31 -5 3 -5 0 -10 -8
-10 -8 0 -12 3 -10 7 2 4 -3 7 -11 7 -8 0 -13 -6 -10 -12 3 -8 -4 -10 -21 -7
-20 4 -24 2 -18 -9 8 -12 6 -12 -8 0 -14 11 -17 11 -17 0 0 -11 -2 -11 -10 1
-8 12 -10 12 -10 1 0 -11 -3 -11 -17 0 -11 10 -14 10 -9 2 4 -8 1 -13 -9 -13
-9 0 -14 -4 -11 -8 3 -5 -1 -9 -9 -9 -8 0 -12 5 -8 10 3 5 -4 4 -14 -2 -11 -6
-23 -7 -27 -4 -3 3 -6 -1 -6 -11 0 -9 -5 -14 -10 -11 -6 4 -7 11 -4 17 4 7 2
8 -5 4 -6 -4 -9 -12 -6 -17 4 -5 -7 -9 -23 -9 -17 0 -32 -6 -35 -14 -6 -15
-23 -16 -46 -2 -10 6 -12 5 -7 -2 7 -11 -6 -17 -27 -13 -5 1 -6 -3 -3 -8 4 -5
2 -12 -4 -16 -5 -3 -10 0 -10 7 0 8 -4 7 -11 -4 -6 -11 -16 -15 -26 -11 -11 4
-14 3 -9 -5 5 -8 2 -10 -8 -6 -9 3 -16 1 -16 -6 0 -6 -5 -8 -10 -5 -6 4 -17 1
-25 -5 -8 -6 -19 -9 -25 -5 -6 4 -10 3 -9 -2 3 -20 -2 -27 -11 -13 -8 13 -10
12 -10 -4 0 -11 -3 -16 -7 -13 -3 4 -12 -1 -20 -11 -8 -9 -12 -12 -9 -5 4 6 1
15 -5 19 -7 4 -9 3 -5 -4 6 -10 -30 -28 -47 -24 -5 1 -6 -2 -2 -8 4 -7 13 -6
28 1 17 9 19 9 11 0 -6 -7 -24 -14 -40 -17 -16 -3 -37 -15 -47 -28 -12 -17
-24 -23 -40 -19 -18 4 -19 3 -7 -7 13 -10 11 -11 -7 -7 -14 3 -21 0 -20 -7 1
-6 -4 -10 -12 -8 -9 2 -11 -3 -7 -14 6 -15 4 -15 -11 -3 -9 8 -14 9 -10 3 6
-10 -13 -25 -35 -28 -3 -1 -10 -5 -15 -10 -5 -5 -2 -6 7 -2 8 4 6 0 -4 -8 -11
-9 -23 -16 -28 -16 -4 0 -8 -8 -8 -17 0 -15 -2 -16 -10 -3 -8 12 -10 10 -10
-10 0 -15 -3 -20 -8 -13 -9 14 -44 -12 -55 -41 -4 -10 -13 -16 -22 -12 -8 3
-17 0 -21 -6 -4 -7 -3 -8 4 -4 7 4 12 1 12 -8 0 -10 -6 -13 -17 -9 -12 5 -15
2 -10 -9 4 -12 0 -15 -18 -14 -17 2 -22 -1 -17 -12 4 -11 2 -13 -9 -7 -12 8
-12 6 0 -8 12 -16 12 -17 -5 -11 -10 4 -16 4 -12 -1 4 -4 1 -14 -7 -21 -17
-17 -29 -18 -19 -2 4 6 3 8 -4 5 -5 -4 -8 -17 -5 -30 4 -18 3 -19 -6 -7 -9 13
-11 12 -11 -4 0 -11 -3 -16 -6 -13 -8 8 -44 -36 -44 -53 0 -7 -6 -10 -14 -7
-10 4 -12 0 -9 -14 4 -12 0 -19 -9 -19 -17 0 -61 -74 -50 -84 4 -4 0 -6 -8 -4
-8 1 -14 -3 -15 -11 0 -8 -9 -17 -20 -22 -11 -4 -14 -8 -7 -8 7 -1 10 -6 7
-11 -4 -6 -11 -7 -17 -4 -6 4 -8 2 -4 -4 3 -6 2 -13 -4 -17 -5 -3 -10 -11 -10
-16 0 -6 5 -7 12 -3 7 4 8 3 4 -5 -6 -9 -11 -9 -21 -1 -11 9 -13 6 -11 -14 2
-16 -2 -26 -10 -26 -7 0 -16 -5 -20 -12 -4 -6 -3 -8 4 -5 6 5 8 -1 5 -14 -5
-16 -8 -18 -15 -7 -7 9 -8 7 -5 -9 3 -13 0 -26 -5 -30 -7 -4 -8 -1 -3 8 7 12
5 12 -6 1 -11 -10 -11 -14 -1 -21 10 -6 9 -11 -4 -22 -10 -8 -15 -9 -11 -2 4
6 3 14 -2 17 -5 3 -7 -8 -6 -24 2 -19 -2 -30 -11 -30 -7 0 -16 -5 -20 -12 -4
-6 -3 -8 4 -4 6 3 13 2 17 -4 3 -5 -1 -10 -9 -10 -10 0 -13 -6 -10 -15 4 -8
-1 -17 -10 -21 -22 -8 -20 -25 1 -18 10 3 6 -2 -9 -11 -16 -8 -28 -18 -28 -21
0 -3 4 -3 9 1 5 3 12 1 15 -4 3 -5 -4 -11 -16 -14 -18 -5 -19 -8 -9 -21 11
-13 11 -17 -2 -22 -9 -3 -13 -12 -10 -21 5 -12 3 -14 -8 -8 -8 4 -11 5 -7 0 4
-4 3 -14 -3 -22 -9 -10 -8 -13 0 -13 8 0 6 -6 -4 -16 -13 -14 -14 -19 -3 -25
10 -6 8 -9 -7 -10 -11 0 -15 -3 -9 -5 15 -6 6 -44 -10 -44 -6 0 -4 -5 4 -10
10 -6 11 -10 3 -10 -7 0 -13 -7 -13 -16 0 -9 -5 -12 -12 -8 -10 6 -9 3 0 -8
11 -13 11 -21 2 -39 -7 -12 -8 -19 -3 -16 5 3 9 -3 9 -13 0 -14 -3 -16 -13 -8
-11 8 -12 7 -7 -7 6 -14 4 -16 -7 -10 -11 6 -12 5 -1 -6 16 -17 16 -32 0 -23
-10 6 -10 4 0 -8 10 -13 10 -17 0 -21 -10 -4 -10 -6 0 -6 10 -1 10 -5 0 -21
-10 -15 -10 -24 -1 -39 10 -15 8 -23 -8 -40 -20 -22 -17 -47 4 -34 7 3 4 -3
-6 -14 -20 -23 -22 -37 -4 -27 9 6 9 4 0 -7 -16 -16 -17 -33 -1 -23 7 5 8 3 2
-7 -5 -8 -10 -25 -11 -39 -3 -20 -1 -22 8 -10 9 13 10 12 5 -3 -3 -10 -6 -21
-6 -23 0 -3 -5 -2 -12 2 -7 5 -8 3 -2 -7 4 -8 9 -32 9 -54 1 -23 5 -47 10 -55
6 -10 4 -12 -10 -6 -14 5 -16 4 -7 -7 7 -8 9 -17 5 -21 -4 -4 -1 -11 7 -16 13
-9 13 -10 0 -10 -13 0 -13 -1 0 -10 10 -6 11 -10 3 -10 -7 0 -13 -5 -13 -11 0
-5 5 -7 10 -4 13 8 13 -1 0 -25 -7 -13 -7 -21 2 -26 7 -5 8 -3 3 6 -5 9 -4 11
3 6 7 -4 8 -15 2 -30 -6 -17 -4 -30 7 -46 13 -18 13 -21 2 -15 -12 8 -12 6 0
-8 11 -14 11 -17 0 -17 -9 0 -10 -3 -4 -8 6 -4 10 -17 9 -30 -1 -17 2 -20 12
-11 10 8 13 6 11 -10 0 -11 -4 -18 -7 -16 -4 2 -7 -3 -7 -11 0 -9 6 -13 16 -9
12 5 13 3 4 -6 -12 -12 -7 -42 6 -34 4 2 8 -2 8 -10 0 -8 -4 -12 -9 -9 -4 3
-8 0 -8 -5 0 -6 5 -11 11 -11 6 0 9 -6 6 -12 -2 -7 0 -21 5 -30 6 -13 5 -18
-4 -18 -9 0 -9 -3 2 -9 8 -6 18 -7 23 -4 5 3 5 -3 -1 -13 -11 -23 -5 -47 11
-37 7 4 5 -2 -3 -12 -14 -17 -13 -18 2 -12 13 5 16 1 12 -19 -2 -13 0 -24 6
-24 5 0 10 -11 10 -24 0 -13 6 -26 13 -29 8 -3 13 -16 12 -29 -1 -12 5 -28 14
-35 9 -6 17 -16 17 -22 1 -6 2 -16 3 -22 0 -5 7 -7 14 -3 10 6 10 4 0 -7 -15
-16 -17 -33 -3 -24 6 3 10 -1 10 -10 0 -10 5 -13 12 -9 9 5 9 2 -1 -9 -9 -12
-10 -17 -2 -17 7 0 9 -4 6 -10 -3 -6 1 -7 10 -4 11 4 14 2 9 -9 -3 -8 0 -18 5
-22 6 -3 8 -11 5 -17 -4 -7 -2 -8 4 -4 11 6 16 -6 13 -26 0 -5 4 -8 11 -8 6 0
8 -3 5 -6 -3 -4 5 -16 19 -27 17 -13 22 -22 14 -27 -7 -5 -6 -11 6 -21 15 -12
17 -12 9 0 -5 10 -4 12 3 7 7 -4 12 -16 12 -27 0 -10 5 -19 10 -19 6 0 10 -6
10 -14 0 -8 5 -18 12 -22 7 -5 8 -3 3 6 -5 8 -4 11 3 6 6 -4 8 -14 5 -23 -4
-11 -3 -14 5 -9 8 5 12 -1 12 -16 0 -18 2 -20 10 -8 8 13 10 12 10 -2 0 -10 5
-18 10 -18 6 0 10 -5 10 -11 0 -5 -6 -7 -12 -3 -9 5 -9 2 1 -9 14 -17 26 -24
17 -9 -3 5 1 9 8 9 8 0 11 -8 8 -19 -3 -12 1 -18 12 -18 10 0 13 -6 9 -17 -3
-10 -3 -15 1 -11 10 8 36 -14 29 -24 -2 -5 1 -8 7 -8 6 0 8 -5 4 -12 -5 -8 -2
-8 10 1 15 12 17 12 14 0 -2 -8 2 -13 9 -12 7 2 10 -4 6 -13 -5 -13 -2 -15 18
-9 20 6 22 5 11 -6 -14 -15 -16 -33 -3 -24 5 3 16 -1 24 -9 8 -8 18 -12 22 -8
5 4 5 -1 2 -11 -4 -10 -3 -16 2 -13 12 8 33 -19 23 -29 -4 -5 -2 -5 4 -2 6 3
17 -3 24 -14 16 -21 36 -27 24 -6 -4 6 6 0 23 -16 16 -15 32 -24 36 -21 3 4 5
-3 2 -14 -2 -13 1 -19 8 -16 7 2 21 -3 32 -11 19 -16 19 -16 -2 -6 -16 8 -24
8 -29 -1 -4 -6 -3 -8 4 -4 6 3 16 1 24 -6 14 -13 33 -20 55 -21 7 0 10 -4 7
-9 -3 -5 8 -14 25 -21 17 -7 28 -17 24 -22 -5 -4 0 -5 10 -2 12 5 26 -1 41
-18 13 -14 30 -25 38 -25 19 0 40 -24 30 -35 -4 -4 3 -5 14 -1 15 5 24 2 28
-10 4 -9 9 -14 13 -11 3 4 13 1 21 -6 13 -10 14 -9 8 1 -7 11 -4 12 13 3 11
-7 21 -14 21 -17 0 -3 -5 -2 -12 2 -7 4 -8 3 -4 -5 6 -9 11 -9 22 0 14 11 19
2 15 -24 -1 -4 8 -3 18 3 14 7 22 7 27 -2 5 -7 3 -8 -7 -3 -8 5 -11 4 -6 0 11
-13 51 -14 60 -1 5 6 5 0 2 -13 -6 -19 -4 -23 8 -18 9 3 18 -1 22 -10 4 -12 9
-13 17 -5 8 8 14 7 23 -2 7 -7 28 -11 46 -10 31 2 32 1 15 -12 -18 -12 -17
-13 12 -9 18 2 32 -1 32 -7 0 -6 6 -6 15 2 10 9 15 9 15 1 0 -6 9 -11 19 -11
11 0 23 -5 26 -10 5 -8 12 -7 23 2 12 10 14 10 8 1 -4 -7 -2 -13 3 -13 6 0 11
6 11 13 0 9 3 8 9 -2 5 -7 14 -10 20 -7 6 4 14 0 17 -9 6 -13 8 -14 15 -3 7
11 9 11 9 0 0 -9 7 -11 21 -7 13 5 19 3 15 -3 -3 -5 1 -13 10 -16 8 -3 12 -2
9 3 -3 6 8 9 24 9 17 -1 28 -5 25 -9 -2 -4 1 -11 7 -15 7 -4 9 -3 5 4 -3 6 -2
13 4 17 5 3 10 1 10 -4 0 -6 5 -11 11 -11 5 0 8 4 5 8 -6 11 44 7 52 -4 8 -11
38 -12 48 -1 4 4 13 2 21 -4 7 -6 22 -9 33 -6 11 3 22 1 25 -4 3 -4 12 -6 20
-3 8 4 13 10 10 14 -3 5 0 12 6 16 7 4 9 3 6 -3 -11 -17 11 -20 122 -17 84 3
106 7 118 21 8 10 12 13 9 7 -8 -17 21 -25 36 -11 7 7 26 12 43 10 16 -1 34 2
41 8 6 5 28 10 47 11 20 1 34 4 32 7 -2 4 5 7 15 7 15 0 17 -3 7 -15 -10 -12
-9 -12 10 -1 12 8 19 18 17 22 -7 11 33 15 66 7 9 -3 15 3 14 13 -1 9 4 14 11
12 7 -3 16 0 20 6 5 8 11 8 21 -1 10 -8 14 -8 14 0 0 6 4 11 10 11 5 0 7 -8 4
-17 -3 -10 3 -6 12 10 17 24 44 41 29 17 -3 -5 -1 -10 4 -10 6 0 11 4 11 10 0
5 6 9 13 7 6 -1 11 4 10 10 -2 7 2 13 7 13 6 0 10 -6 10 -12 0 -7 9 1 21 17
19 28 20 28 13 5 -6 -22 -5 -23 9 -11 9 7 14 17 11 22 -3 5 2 6 10 3 9 -4 16
-1 16 6 0 9 8 6 22 -6 18 -15 20 -16 9 -2 -11 15 -11 19 2 24 9 3 21 2 28 -2
8 -5 9 -3 4 6 -6 10 -4 12 10 6 15 -5 16 -4 6 8 -10 12 -9 14 6 10 10 -3 27 2
38 11 11 9 14 13 6 9 -9 -4 -12 -3 -7 4 4 6 14 8 23 5 12 -5 14 -3 8 8 -7 12
-6 12 7 1 13 -10 18 -10 24 -1 5 8 3 9 -6 4 -9 -5 -11 -4 -6 3 4 7 14 12 22
12 9 0 12 -5 8 -12 -4 -7 -3 -8 5 -4 6 4 9 12 6 17 -4 5 2 9 12 9 15 0 16 2 3
10 -13 8 -12 10 5 11 11 1 23 1 28 0 4 0 7 4 7 9 0 5 6 9 13 7 6 -1 11 6 11
15 -1 11 5 15 17 13 11 -2 19 1 19 6 0 6 6 7 13 3 9 -6 9 -4 -1 8 -11 14 -10
16 7 11 15 -4 23 1 30 18 4 14 16 24 27 24 11 0 18 5 17 12 -2 7 3 10 11 7 8
-3 17 0 21 5 3 6 11 8 17 5 7 -4 8 -2 4 5 -6 9 -12 9 -24 -1 -15 -12 -16 -11
-3 5 7 9 22 17 33 17 14 0 18 5 14 15 -3 8 -2 14 2 14 4 -1 16 -1 27 0 17 1
18 3 5 11 -13 8 -12 10 3 10 10 0 20 8 24 18 10 28 34 51 49 45 9 -3 12 1 9
15 -2 15 2 19 19 17 14 -2 23 3 23 11 0 7 -5 10 -10 7 -6 -4 -7 -1 -3 6 5 7
14 10 21 7 9 -3 12 3 10 20 -2 18 1 22 10 14 9 -8 14 -5 18 11 5 20 8 21 24 9
15 -12 16 -12 6 0 -18 20 -16 33 3 26 14 -5 15 -4 5 8 -9 11 -7 15 9 19 11 3
20 10 20 17 0 6 -5 8 -12 4 -7 -4 -8 -3 -4 4 4 7 13 12 19 12 7 0 21 8 32 16
19 16 19 16 -5 9 -22 -6 -23 -5 -9 6 9 8 22 23 28 34 11 19 12 18 7 -5 -5 -24
-5 -23 7 3 7 15 17 24 22 20 5 -5 3 1 -5 11 -8 11 -10 17 -4 13 7 -4 14 3 18
18 4 16 11 23 18 19 8 -5 9 -1 4 11 -6 16 -4 16 11 4 9 -8 14 -9 10 -2 -10 16
3 44 17 36 6 -4 4 2 -4 12 -13 17 -13 18 1 13 12 -5 16 -1 15 15 -1 14 4 21
13 19 12 -3 12 -1 0 14 -8 10 -9 15 -2 11 7 -4 14 1 18 13 3 11 10 20 14 20 4
0 7 13 6 30 -1 24 1 28 12 18 11 -8 12 -7 7 6 -3 9 -1 16 5 16 6 0 11 5 11 11
0 5 -6 7 -12 4 -7 -4 -5 0 5 8 10 9 18 18 18 21 -3 20 0 26 9 21 14 -9 13 8
-2 23 -9 9 -8 12 6 12 12 0 16 5 12 15 -3 8 0 15 7 15 8 0 6 4 -3 10 -13 9
-13 10 0 11 8 1 19 1 23 0 5 -1 6 3 2 9 -3 6 -12 8 -18 4 -7 -3 -4 1 6 9 21
17 33 61 14 51 -7 -3 -1 4 13 16 14 12 19 19 13 15 -18 -9 -16 5 4 27 16 18
16 18 -2 12 -14 -6 -16 -4 -10 7 5 8 17 20 28 28 18 13 18 14 0 34 -10 11 -12
17 -5 13 13 -8 16 2 12 42 -1 13 3 28 8 35 14 18 21 67 10 73 -5 3 -1 15 8 26
16 16 16 21 4 29 -13 8 -12 11 3 23 18 14 18 15 0 25 -17 10 -17 10 1 11 15 0
16 3 6 15 -11 13 -10 14 1 10 10 -4 15 1 15 15 0 15 -5 19 -21 14 -18 -5 -18
-4 3 11 12 9 22 22 22 28 0 7 -4 6 -10 -3 -5 -8 -10 -10 -10 -4 0 5 5 15 12
22 8 8 8 12 1 12 -6 0 -13 7 -16 14 -4 10 -1 13 8 10 14 -6 15 19 2 32 -15 15
-6 26 11 13 15 -12 15 -11 -1 8 -17 20 -17 22 -2 31 16 8 16 9 1 15 -13 5 -15
11 -7 25 7 13 7 22 -1 30 -9 9 -9 12 1 12 7 0 9 5 6 10 -4 6 -12 7 -18 3 -7
-3 -3 4 8 17 11 13 15 20 8 17 -8 -5 -11 5 -10 38 1 30 -2 47 -12 50 -11 4
-11 8 -1 20 7 9 8 15 2 15 -5 0 -13 7 -16 16 -3 9 -2 12 5 9 6 -4 7 3 3 21 -5
21 -4 25 7 20 8 -4 3 1 -10 12 -18 14 -21 21 -11 27 9 6 11 4 5 -5 -6 -9 -4
-11 5 -5 10 6 7 12 -10 25 -12 9 -19 20 -13 23 10 6 9 43 -2 69 -4 9 -4 21 -1
27 4 5 -4 7 -16 4 -18 -4 -20 -2 -8 6 12 8 12 12 -3 29 -9 10 -17 22 -17 27 0
5 7 0 15 -11 8 -11 14 -14 15 -6 0 7 -9 20 -20 29 -14 13 -17 20 -8 30 8 10 7
13 -2 13 -10 0 -10 3 0 15 11 13 10 14 -3 10 -8 -4 -18 -1 -23 6 -4 8 -3 10 4
5 7 -4 12 -2 12 3 0 6 -4 11 -10 11 -5 0 -10 9 -10 20 0 11 -6 20 -12 20 -9 0
-8 4 2 10 9 6 10 10 3 10 -7 0 -18 10 -24 23 -11 20 -11 21 4 8 26 -21 20 -5
-8 23 -16 16 -20 26 -12 29 7 3 5 6 -4 6 -21 1 -31 25 -17 39 6 6 6 12 -3 17
-8 6 -10 4 -4 -6 5 -8 4 -11 -1 -6 -5 5 -9 12 -10 15 -1 12 -15 47 -30 73 -7
14 -10 30 -6 35 4 4 -1 2 -11 -5 -15 -12 -17 -12 -11 3 4 9 1 16 -6 16 -9 0
-9 4 1 16 12 15 11 16 -9 10 -17 -6 -21 -4 -16 8 3 9 11 13 17 9 6 -3 7 -1 3
6 -6 9 -11 9 -21 1 -11 -9 -12 -7 -8 9 3 13 -2 24 -16 33 -12 7 -21 21 -21 31
0 13 -5 17 -14 14 -11 -4 -13 -1 -9 10 5 12 3 14 -7 8 -9 -5 -11 -4 -6 4 4 6
-1 19 -11 29 -11 9 -12 13 -3 7 13 -9 13 -8 1 8 -7 9 -20 17 -28 17 -8 0 -11
5 -8 10 3 6 0 10 -9 10 -9 0 -13 8 -12 24 2 18 -1 23 -12 18 -12 -4 -14 -1 -9
13 6 15 5 16 -8 5 -13 -11 -14 -10 -9 6 4 10 4 16 0 12 -14 -12 -35 15 -23 30
6 7 6 12 1 11 -19 -3 -44 1 -43 9 4 21 -3 32 -19 32 -27 0 -34 11 -19 28 10
13 9 14 -1 8 -14 -8 -56 27 -46 37 3 3 -3 4 -13 4 -10 -1 -22 8 -28 21 -5 12
-13 22 -18 22 -4 0 -5 -6 -1 -12 5 -9 2 -9 -9 1 -18 15 -23 26 -7 16 6 -3 10
-1 10 4 0 6 -10 11 -22 11 -19 0 -20 2 -8 10 13 8 12 10 -3 10 -22 0 -49 25
-39 35 4 4 -3 2 -16 -4 -22 -12 -23 -11 -13 8 10 17 9 20 -4 15 -8 -4 -15 -1
-15 5 0 6 -3 10 -7 10 -22 -4 -33 3 -33 18 0 9 -3 14 -6 10 -4 -3 -15 4 -26
16 -11 12 -16 16 -12 8 4 -9 2 -12 -7 -9 -8 3 -13 12 -13 21 1 9 -4 13 -12 10
-8 -3 -14 0 -14 6 0 6 -5 11 -11 11 -5 0 -7 -6 -4 -12 4 -7 0 -5 -8 4 -8 10
-17 15 -20 11 -4 -3 -7 2 -7 13 0 16 -2 17 -10 4 -8 -13 -10 -12 -10 3 0 9 -5
17 -11 17 -5 0 -7 -6 -4 -12 4 -7 -5 1 -19 17 -17 19 -26 25 -26 15 0 -13 -2
-13 -9 0 -6 8 -7 18 -4 24 3 5 1 6 -5 2 -6 -4 -9 -14 -6 -24 3 -9 -1 -6 -9 7
-11 18 -16 20 -20 10 -4 -10 -6 -9 -6 4 -1 16 -12 21 -40 18 -7 -2 -10 2 -6 9
5 9 0 8 -16 -1 -23 -12 -23 -11 -9 6 9 11 10 16 3 11 -8 -4 -13 -2 -13 6 0 9
-3 9 -10 -2 -9 -13 -10 -13 -10 0 0 13 -1 13 -10 0 -7 -11 -10 -11 -10 -2 0 8
-5 10 -12 6 -10 -6 -9 -3 0 8 12 15 10 17 -20 15 -24 -1 -32 2 -30 12 3 12 1
12 -14 0 -10 -8 -15 -9 -11 -2 9 15 -14 23 -36 11 -12 -6 -17 -5 -15 4 2 7 -5
12 -14 12 -11 -1 -15 4 -11 15 3 11 2 12 -4 4 -5 -7 -18 -11 -30 -10 -16 1
-19 5 -12 13 7 8 1 10 -21 8 -16 -2 -30 1 -30 6 0 6 -5 10 -11 10 -5 0 -8 -4
-5 -8 3 -5 -2 -9 -10 -9 -8 0 -13 6 -10 13 3 8 0 11 -9 7 -8 -3 -12 -10 -8
-17 3 -6 1 -6 -8 2 -7 6 -21 12 -32 12 -10 0 -15 5 -12 10 3 6 -1 10 -10 10
-9 0 -13 -5 -9 -11 3 -6 -6 -3 -20 6 -26 17 -27 17 -42 -1 -10 -14 -14 -15
-12 -4 2 10 -4 14 -19 12 -13 -2 -23 1 -23 6 0 6 -7 13 -16 16 -13 5 -14 3 -6
-6 8 -10 4 -13 -15 -15 -16 0 -21 2 -14 7 10 5 9 9 -3 13 -8 3 -17 1 -20 -6
-2 -7 -5 -7 -5 -1 -1 10 -58 11 -68 0 -4 -3 -17 1 -31 10 -13 9 -22 12 -18 6
8 -13 -17 -22 -34 -12 -8 5 -21 5 -31 0 -9 -5 -19 -7 -22 -4 -9 9 -117 11
-111 3 3 -5 -2 -6 -10 -3 -9 3 -13 10 -10 15 3 5 3 9 -1 9 -3 0 -10 -10 -15
-22z m-1130 -482 c0 -2 -8 -10 -17 -17 -16 -13 -17 -12 -4 4 13 16 21 21 21
13z m-232 -236 c-7 -10 -14 -17 -17 -15 -4 4 18 35 25 35 2 0 -1 -9 -8 -20z
m-58 -74 c0 -2 -8 -10 -17 -17 -16 -13 -17 -12 -4 4 13 16 21 21 21 13z m3570
-750 c0 -3 -4 -8 -10 -11 -5 -3 -10 -1 -10 4 0 6 5 11 10 11 6 0 10 -2 10 -4z
m0 -970 c0 -2 -7 -7 -16 -10 -8 -3 -12 -2 -9 4 6 10 25 14 25 6z"/>
<path d="M1776 4432 c-3 -5 1 -9 9 -9 8 0 12 4 9 9 -3 4 -7 8 -9 8 -2 0 -6 -4
-9 -8z"/>
<path d="M4306 3378 c3 -5 10 -6 15 -3 13 9 11 12 -6 12 -8 0 -12 -4 -9 -9z"/>
<path d="M453 2745 c0 -11 4 -12 14 -4 7 6 13 13 13 15 0 2 -6 4 -13 4 -8 0
-14 -7 -14 -15z"/>
<path d="M555 1839 c-4 -6 -5 -12 -2 -15 2 -3 7 2 10 11 7 17 1 20 -8 4z"/>
<path d="M620 1690 c0 -5 5 -10 11 -10 5 0 7 5 4 10 -3 6 -8 10 -11 10 -2 0
-4 -4 -4 -10z"/>
<path d="M750 1429 c0 -5 5 -7 10 -4 6 3 10 8 10 11 0 2 -4 4 -10 4 -5 0 -10
-5 -10 -11z"/>
<path d="M3885 1071 c-3 -5 0 -13 6 -17 7 -4 9 -3 5 4 -3 5 0 13 6 15 9 4 10
6 1 6 -6 1 -14 -3 -18 -8z"/>
<path d="M1184 949 c-4 -7 -3 -10 4 -5 6 3 15 -2 21 -11 5 -10 12 -15 15 -12
4 3 -2 14 -13 23 -14 13 -21 14 -27 5z"/>
<path d="M1410 790 c0 -6 7 -10 15 -10 8 0 15 2 15 4 0 2 -7 6 -15 10 -8 3
-15 1 -15 -4z"/>
<path d="M3079 583 c-13 -16 -12 -17 4 -4 16 13 21 21 13 21 -2 0 -10 -8 -17
-17z"/>
</g>
</svg>
