<?xml version="1.0" standalone="no"?>
<!DOCTYPE svg PUBLIC "-//W3C//DTD SVG 20010904//EN"
 "http://www.w3.org/TR/2001/REC-SVG-20010904/DTD/svg10.dtd">
<svg version="1.0" xmlns="http://www.w3.org/2000/svg"
 width="503.000000pt" height="503.000000pt" viewBox="0 0 503.000000 503.000000"
 preserveAspectRatio="xMidYMid meet">
<metadata>
Created by potrace 1.14, written by Peter Selinger 2001-2017
</metadata>
<g transform="translate(0.000000,503.000000) scale(0.100000,-0.100000)"
fill="#000000" stroke="none">
<path d="M2230 4530 c-14 -4 -42 -8 -63 -9 -20 -1 -65 -8 -100 -17 -126 -32
-143 -36 -182 -49 -22 -6 -58 -17 -80 -24 -50 -15 -55 -18 -196 -84 -468 -221
-829 -611 -1020 -1097 -26 -68 -48 -134 -59 -180 -5 -19 -16 -64 -24 -100 -33
-134 -40 -218 -40 -450 0 -256 13 -369 63 -540 35 -120 36 -122 81 -235 196
-485 605 -894 1095 -1095 96 -39 183 -70 225 -80 232 -57 286 -63 545 -63 227
-1 318 7 445 38 36 9 81 20 100 25 220 52 520 208 730 377 167 135 367 368
469 546 57 99 131 252 131 270 0 8 3 17 7 21 12 11 51 127 76 221 69 263 86
555 46 795 -34 206 -46 255 -92 387 -208 592 -685 1064 -1266 1252 -136 44
-223 65 -336 83 -78 13 -523 19 -555 8z m-27 -1267 c24 -38 96 -147 159 -243
163 -248 295 -450 364 -557 32 -51 62 -92 66 -93 4 0 9 215 10 478 l3 477 193
3 192 2 0 -795 0 -795 -195 0 -194 0 -77 118 c-71 107 -263 398 -426 647 -98
147 -134 196 -141 188 -4 -3 -7 -219 -7 -480 l0 -473 -190 0 -190 0 0 795 0
795 194 0 194 0 45 -67z"/>
</g>
</svg>
